<?xml version="1.0" encoding="utf-8"?>
<!-- Generator: Adobe Illustrator 25.0.1, SVG Export Plug-In . SVG Version: 6.00 Build 0)  -->
<svg version="1.1" id="Layer_1" xmlns="http://www.w3.org/2000/svg" xmlns:xlink="http://www.w3.org/1999/xlink" x="0px" y="0px"
	 viewBox="0 0 841.9 470" style="enable-background:new 0 0 841.9 470;" xml:space="preserve">
<style type="text/css">
	.st0{fill:#30A54B;}
	.st1{fill:#FF3636;}
</style>
<g>
	<g id="XMLID_1_">
		<g>
			<path class="st0" d="M773.8,271.9c2.1,0,2.5,0.7,2.5,2.6c-0.1,3.7,0,7.5,0,11.2h0c0,3.8-0.1,7.7,0,11.5c0,1.7-0.4,2.3-2.2,2.3
				c-7.6-0.1-15.2-0.1-22.7,0c-1.6,0-2-0.5-2-2c0-7.8,0-15.5,0-23.2c0-1.6,0.3-2.4,2.3-2.4C759,272.1,766.4,272.1,773.8,271.9z"/>
			<path class="st0" d="M773.7,341.6c1.4,0,2.1,0.3,2,2c-0.1,3.8,0,7.7,0,11.5h0c0,3.9,0,7.8,0,11.7c0,1.4-0.3,2.1-1.9,2.1
				c-7.5-0.1-15-0.1-22.5,0c-1.9,0-2.4-0.6-2.4-2.4c0.1-7.5,0.1-15,0-22.5c0-1.7,0.4-2.3,2.2-2.3
				C758.7,341.7,766.2,341.6,773.7,341.6z"/>
			<path class="st0" d="M706.4,296.8c0,1.6-0.4,2.2-2.1,2.2c-7.6-0.1-15.3-0.1-23,0c-1.8,0-2.3-0.6-2.3-2.3c0.1-3.9,0-7.8,0-11.7
				c0,0,0,0,0,0c0-3.8,0-7.5,0-11.2c0-1.6,0.4-2.3,2.2-2.3c7.7,0.1,15.3,0.1,23,0c1.7,0,2.1,0.6,2.1,2.2
				C706.4,281.4,706.4,289.1,706.4,296.8z"/>
			<path class="st0" d="M704.4,341.5c1.4,0,1.9,0.6,1.9,1.9c0,7.8,0,15.7,0,23.5c0,1.4-0.5,1.9-1.9,1.9c-7.8,0-15.7,0-23.5,0
				c-1.3,0-1.7-0.5-1.7-1.8c0.1-4,0-8,0-12h-0.1c0-3.8,0.1-7.7,0-11.5c0-1.5,0.4-2.1,2-2.1C689,341.6,696.7,341.6,704.4,341.5z"/>
			<path class="st0" d="M634.9,271.4c1.6,0,2,0.7,2,2.1c0,7.9,0,15.8,0,23.7c0,1,0,1.9-1.3,1.9c-8.4,0-16.8,0-25.1-0.1
				c-0.2,0-0.4-0.3-0.6-0.4c0-7.8,0-15.6,0.1-23.5c0-0.6,0.1-1.2-0.4-1.7c-0.2-1.5,0.3-2.1,1.9-2.1
				C619.3,271.4,627.1,271.4,634.9,271.4z"/>
			<path class="st0" d="M636.7,366.9c0.1,1.7-0.6,2-2,2c-7.6,0-15.2-0.1-22.7,0c-1.6,0-2.1-0.6-2.1-2.2c0.1-7.8,0.1-15.5,0-23.2
				c0-1.5,0.5-2,2-2c7.6,0.1,15.2,0.1,22.7,0c1.7,0,2.1,0.6,2.1,2.2c-0.1,3.9,0,7.8,0,11.7C636.6,359.3,636.5,363.1,636.7,366.9z"/>
			<path class="st0" d="M609.7,279.2c0-1.9,0.2-3.8-0.1-5.7c0.5,0.5,0.4,1.1,0.4,1.7c0,7.8,0,15.6-0.1,23.5
				C609.5,292.2,609.8,285.7,609.7,279.2z"/>
			<path class="st0" d="M609.6,273.5c0.3,1.9,0.1,3.8,0.1,5.7c0.1,6.5-0.2,12.9,0.2,19.4c-0.1-0.6-0.4-1.1-0.4-1.7
				C609.5,289.1,609.6,281.3,609.6,273.5z"/>
			<path class="st0" d="M512.5,255.4c0-1.7,0.4-2.5,2.4-2.5c7.7,0.1,15.5,0.1,23.2,0c1.8,0,2.4,0.6,2.4,2.3c0,8.1,0,16.1,0,24.2
				c0,2-1.2,2-2.6,2c-7.7,0-15.5,0-23.2,0c-1.7,0-2.2-0.6-2.1-2.2c0-4.1,0-8.1,0-12.2C512.6,263.2,512.6,259.3,512.5,255.4z"/>
			<path class="st0" d="M537.8,179.5c1.6,0,2.2,0.4,2.2,2.1c-0.1,7.7-0.1,15.5,0,23.2c0,1.6-0.4,2.2-2.1,2.2c-7.7-0.1-15.3-0.1-23,0
				c-1.6,0-1.9-0.6-1.9-2c0.1-3.9,0-7.8,0-11.8c0-4,0.1-8,0-12c0-1.4,0.4-1.8,1.8-1.8C522.5,179.6,530.1,179.5,537.8,179.5z"/>
			<path class="st0" d="M443.5,254.8c0-1.1,0.1-1.6,1.5-1.6c8,0.1,16,0,24,0c1.3,0,1.9,0.4,1.8,1.9c-0.1,8.1-0.1,16.2,0,24.2
				c0,1.5-0.5,2-1.8,2c-8.1,0-16.1-0.1-24.2,0c-1.3,0-1.3-0.7-1.3-1.5c0-4.2,0-8.5,0-12.7C443.5,262.9,443.5,258.9,443.5,254.8z"/>
			<path class="st0" d="M443.5,193.1C443.5,193.1,443.5,193.1,443.5,193.1c0-3.9,0.1-7.8,0-11.7c0-1.5,0.4-2,1.9-2
				c7.7,0.1,15.3,0.1,23,0c1.7,0,2.1,0.4,2.1,2.1c-0.1,7.8-0.1,15.5,0,23.2c0,1.5-0.3,2.3-2.1,2.2c-7.7-0.1-15.5-0.1-23.2,0
				c-1.5,0-1.8-0.5-1.8-1.9C443.6,201.1,443.5,197.1,443.5,193.1z"/>
			<path class="st1" d="M450.2,53.6c4.5,6.9,2,13.6-1.2,20.1c-3.3,6.9-9,11.9-14.3,17.2c-3,3-6.6,5.6-10.2,8.1
				c-3.1,2.1-5.6-0.3-7.9-2c-5.7-4.1-10.6-9.3-15.4-14.4c-6.6-7-10-15.2-8.8-25.1c0.3-2,1-3.9,2.6-5.3c1-1,2.1-2,3-3
				c1.7-1.9,3.8-2.8,6.4-2.6c3,0.3,6.1-0.5,9.1,0.4c3.1,0.9,6.8,4.8,8.6,8.5c2-5.3,7.2-9,12.5-8.9c2.9,0.1,5.9-0.7,8.8,0.7
				C446.5,48.6,448.5,51,450.2,53.6z"/>
			<path class="st0" d="M400.5,278.9c0,1.4-0.2,2.1-1.9,2.1c-7.7-0.1-15.3-0.1-23,0c-1.6,0-2.2-0.6-2.1-2.2c0.1-7.7,0-15.5,0-23.2
				c0-1.5,0.5-2.1,2-2.1c7.8,0,15.5,0.1,23.2,0c1.5,0,1.8,0.7,1.8,2c0,4,0,8,0,12C400.5,271.3,400.5,275.1,400.5,278.9z"/>
			<path class="st0" d="M375.6,179.5c3.8,0.1,7.6,0,11.5,0c3.9,0,7.8,0.1,11.7,0c1.3,0,1.7,0.4,1.7,1.7c0,7.8,0,15.6,0.1,23.5
				c0,1.7-0.4,2.5-2.4,2.4c-7.5-0.1-15-0.1-22.5,0c-1.7,0-2.3-0.5-2.3-2.3c0.1-7.7,0.1-15.5,0-23.2
				C373.5,179.8,374,179.4,375.6,179.5z"/>
			<path class="st0" d="M306.1,253.5c7.8,0.1,15.5,0,23.2,0c1.3,0,1.7,0.4,1.7,1.7c-0.1,4,0,8,0,12s-0.1,8,0,12
				c0,1.3-0.3,1.7-1.6,1.7c-7.8,0-15.7,0-23.5,0c-1.5,0-1.8-0.6-1.8-2c0-7.8,0.1-15.7,0-23.5C304,253.9,304.7,253.5,306.1,253.5z"/>
			<path class="st0" d="M331,193.1c0,3.9-0.1,7.8,0,11.7c0,1.6-0.4,2.2-2.1,2.2c-7.6-0.1-15.1-0.1-22.7,0c-1.6,0-2.2-0.5-2.2-2.1
				c0.1-7.7,0.1-15.5,0-23.2c0-1.7,0.6-2.1,2.2-2.1c7.6,0.1,15.1,0.1,22.7,0c1.7,0,2.1,0.5,2.1,2.1C330.9,185.4,331,189.2,331,193.1
				L331,193.1z"/>
			<path class="st0" d="M231.5,273.7c-0.1,3.8,0,7.7,0,11.5h0c0,3.9-0.1,7.8,0,11.7c0,1.5-0.3,2.1-1.9,2.1c-7.8-0.1-15.7-0.1-23.5,0
				c-1.6,0-1.9-0.7-1.9-2.1c0-7.7,0.1-15.5,0-23.2c0-1.8,0.7-2.2,2.4-2.2c7.6,0.1,15.2,0.1,22.7,0C231,271.4,231.5,272,231.5,273.7z
				"/>
			<path class="st0" d="M229.3,341.5c1.7,0,2.2,0.6,2.2,2.2c-0.1,7.8-0.1,15.5-0.1,23.2c0,1.4-0.5,1.9-1.9,1.9c-7.8,0-15.5,0-23.2,0
				c-1.7,0-2.1-0.7-2.1-2.3c0.1-3.8,0-7.7,0-11.5h0c0-3.7,0.1-7.3,0-11c0-1.8,0.4-2.6,2.4-2.5C214.1,341.6,221.7,341.6,229.3,341.5z
				"/>
			<path class="st0" d="M161.5,285.3c0,3.9-0.1,7.8,0,11.8c0,1.4-0.2,1.9-1.7,1.9c-7.8-0.1-15.5-0.1-23.2,0c-1.6,0-2-0.6-2-2.1
				c0-7.8,0.1-15.5,0-23.2c0-1.6,0.5-2.2,2.1-2.2c7.7,0.1,15.3,0.1,23,0c1.5,0,1.8,0.5,1.8,1.9C161.5,277.3,161.5,281.3,161.5,285.3
				z"/>
			<path class="st0" d="M160,341.5c1.4,0,1.6,0.7,1.5,1.9c-0.1,4,0,8,0,12c0,0,0,0,0,0c0,3.9,0,7.8,0,11.7c0,1.3-0.3,1.8-1.7,1.8
				c-7.8-0.1-15.5-0.1-23.2,0c-1.4,0-2-0.5-2-1.9c0-7.9,0-15.8,0-23.7c0-1.3,0.6-1.8,1.9-1.8C144.4,341.5,152.2,341.6,160,341.5z"/>
			<path class="st0" d="M92.1,297c0,1.4-0.3,2.1-1.9,2c-7.7-0.1-15.3-0.1-23,0c-1.5,0-2.1-0.5-2.1-2c0-7.8,0-15.6,0-23.5
				c0-1.5,0.4-2.1,2-2.1c7.7,0.1,15.5,0,23.2,0c1.3,0,1.7,0.5,1.7,1.8c-0.1,4.1,0,8.2,0,12.2C92,289.3,92,293.1,92.1,297z"/>
			<path class="st0" d="M89.9,341.6c1.8,0,2.2,0.5,2.1,2.3c-0.2,3.7,0,7.5,0,11.2c0,4-0.1,8,0,12c0,1.5-0.6,1.8-1.9,1.8
				c-7.7,0-15.3,0-23,0c-1.7,0-2.2-0.6-2.1-2.2c0.1-7.6,0.1-15.3,0-23c0-1.6,0.5-2.2,2.1-2.1C74.8,341.6,82.4,341.6,89.9,341.6z"/>
			<path class="st0" d="M429.5,429.2c0,1.9,0.4,2.3,2.3,2.3c27.5-0.1,55-0.1,82.4,0c2.2,0,2.8-0.6,2.8-2.8
				c-0.1-28.8-0.1-57.6,0-86.4c0-2.2-0.6-2.8-2.8-2.8c-27.5,0.1-55,0.1-82.4,0c-1.9,0-2.3,0.4-2.3,2.3c0.1,14.6,0,29.1,0,43.7
				C429.5,400,429.5,414.6,429.5,429.2z M587,205c-0.5,0-1,0-1.5,0c-1.5-0.1-2.1,0.5-2,2c0.1,2.5,0.2,5,0,7.5c-0.2,2.5,0.8,3,3.1,3
				c38.7-0.1,77.5-0.1,116.2-0.1h115.4c0.6,0,1.2-0.1,1.7,0c1.2,0.1,1.6-0.4,1.5-1.5c-0.1-2.6-0.2-5.2,0-7.7
				c0.2-2.5-0.4-3.3-3.1-3.3C741.2,205,664.1,205,587,205z M507.3,220.5c12.9,0,25.8,0,38.7,0c4.4,0,7.4-2.7,7.4-7.2
				c0.1-13.4,0.1-26.8,0-40.2c0-4.3-3.2-7.3-7.4-7.2c-6.5,0.2-13,0.1-19.5,0.1c-6.4,0-12.8,0.2-19.2-0.1c-5.8-0.3-8.2,3.8-8.2,8
				c0.1,12.8,0,25.7,0,38.5C499.2,217.9,501.8,220.5,507.3,220.5z M290.5,287c0,4.6,3.2,7.6,7.6,7.5c13.1-0.2,26.1-0.1,39.2-0.1
				c4.5,0,7.4-2.6,7.5-7.1c0.1-13.5,0.1-27,0-40.5c0-3.6-2.8-7.2-7.3-7c-6.5,0.3-13,0.1-19.5,0.1c-6.7,0-13.3,0.2-20-0.1
				c-3.8-0.1-7.5,2.3-7.5,7.4C290.5,260.6,290.5,273.8,290.5,287z M735.5,375.5c0,3.9,3,7,6.9,7c13.3,0,26.6,0,40,0
				c4.1,0,7.2-3.1,7.2-7.3c0-13.2,0-26.5,0-39.7c0-4.3-2.9-7.4-7.2-7.5c-13.2-0.1-26.5-0.1-39.7,0c-4.5,0-7.1,2.9-7.1,7.5
				c0,6.5,0,13,0,19.5C735.5,361.8,735.5,368.7,735.5,375.5z M735.9,306.4c0,3.9,2.9,6.6,6.8,6.6c13.2,0,26.3,0,39.5,0
				c4.8,0,7.4-2.5,7.4-7.3v-20c0-6.8-0.2-13.5,0.1-20.2c0.2-4.4-3.7-7-6.9-7c-13.2,0.1-26.5,0-39.7,0c-4.3,0-7.1,2.6-7.1,6.9
				C735.8,279.1,735.8,292.7,735.9,306.4z M437.2,220.5c13.1,0,26.1,0,39.2,0c5.2,0,7.5-3.2,7.5-7.6c0.1-13.2,0-26.5,0-39.7
				c0-3.9-2.7-7.4-7.3-7.3c-13.3,0.1-26.6,0.1-40,0c-3.7,0-7,2.9-6.9,7c0.2,6.7,0,13.5,0,20.2c0,6.7,0.1,13.3-0.1,20
				C429.8,217.2,432.2,220.5,437.2,220.5z M436.6,294.5c6.8,0,13.5,0,20.2,0c6.7,0,13.3-0.2,20,0.1c3.9,0.1,7.1-2.7,7.1-6.8
				c0.1-13.7,0.1-27.3,0-41c0-4-3-6.9-7.1-6.8c-13.3,0.1-26.6,0.1-40,0.1c-4.3,0-7,2.4-7,6.6c-0.1,13.8-0.1,27.6,0,41.5
				C429.9,291.9,432.8,294.5,436.6,294.5z M329.7,431.5c27.5-0.1,55-0.1,82.5,0c1.8,0,2.4-0.4,2.4-2.3c-0.1-14.6,0-29.2,0-43.7
				s0-29.2,0-43.7c0-1.6-0.2-2.3-2.1-2.3c-23.5-0.1-47,0.5-70.4-0.4c-4.1-0.2-8.2-0.2-12.4,0.3c-2,0.3-2.7,0.7-2.7,2.8
				c0.1,28.9,0.1,57.8,0,86.7C327,431,327.7,431.5,329.7,431.5z M603.2,312.5h39.7c4.5,0,7.2-2.7,7.2-7.3c0-6.7,0-13.3,0-20
				c0-6.8,0-13.7,0-20.5c0-3.9-2.5-6.7-6.4-6.8c-13.6-0.1-27.1-0.1-40.7,0c-3.9,0-6.6,2.7-6.6,6.6c-0.1,13.8,0,27.6,0,41.5
				C596.4,309.8,599.4,312.5,603.2,312.5z M360,287.5c0,4.4,3,7.2,7.5,7.1c6.5-0.2,13,0,19.5,0h19.9c4.6,0,7.2-2.5,7.2-7
				c0-13.5,0-27,0-40.5c0-4.6-2.6-7-7.1-7h-39.5c-4.6,0-7.4,2.4-7.4,7C359.9,260.5,359.9,274,360,287.5z M367.6,220.5
				c13.1,0,26.1,0,39.2,0c4.6,0,7.2-2.6,7.2-7.2c0-6.8,0-13.5,0-20.2h0c0-6.7,0-13.3,0-20c0-4.7-2.4-7-7-7c-13.2,0-26.3,0-39.5,0
				c-4.8,0-7.5,2.6-7.6,7.5c0,13.1,0,26.3,0,39.5C360,217.7,362.9,220.5,367.6,220.5z M51.6,375.7c0,3.8,3.2,6.8,7,6.8
				c6.7,0,13.3,0,20,0h20c1,0,2,0.1,2.9-0.6c2.7-2.2,4.7-4.4,4.6-8.4c-0.3-12.4-0.2-24.8-0.1-37.2c0-5-2.6-8.2-7.5-8.2
				c-13.2-0.1-26.5-0.1-39.7,0c-4.1,0-7.1,2.9-7.1,6.7C51.5,348.4,51.5,362,51.6,375.7z M51.6,305.7c0,4,3,6.8,6.9,6.8
				c6.8,0,13.5,0,20.3,0c6.7,0,13.5,0,20.2,0c1.2,0,2.2-0.2,3.3-0.9c2.5-1.6,3.6-3.8,3.6-6.7c0-13.3,0.1-26.7,0.1-40
				c0-3.7-3-6.9-6.7-7c-13.7-0.1-27.3-0.1-41,0c-3.9,0-6.7,2.9-6.7,6.7C51.5,278.4,51.5,292.1,51.6,305.7z M650,355.6L650,355.6
				c0-6.3-0.2-12.7,0.1-19c0.3-5.7-2.8-8.6-8.3-8.6c-12.8,0.1-25.7,0-38.5,0.1c-4.2,0-7.3,3.3-7.2,7.5c0,1.2,0.1,2.5,0.1,3.7
				c0,11.8,0.2,23.5-0.1,35.2c-0.1,4.8,3.5,8.1,8,8c13-0.2,26-0.1,39-0.1c3.9,0,6.8-2.8,6.8-6.6C650.1,369.1,650,362.3,650,355.6z
				 M499.1,287.1c0,4.5,3.3,7.5,7.5,7.4c13.1-0.2,26.1-0.2,39.2,0c4.2,0.1,7.5-2.6,7.6-7.3c0.1-13.3,0.1-26.7,0-40
				c0-4.7-3.4-7.5-7.5-7.4c-6.5,0.3-13,0.1-19.5,0.1c-6.7,0-13.3,0.2-20-0.1c-3.9-0.1-7.4,2.6-7.4,7.2
				C499,260.5,499.1,273.8,499.1,287.1z M121.5,375.3c0,4.7,2.7,7.2,7.4,7.2c12.7,0,25.3-0.1,38,0.1c5.5,0.1,8.4-3.3,8.4-8.3
				c-0.2-12.8-0.1-25.6-0.1-38.4c0-4.7-2.7-7.7-7.4-7.8c-13.1,0-26.3-0.1-39.4,0c-4.2,0-7.1,3.2-7,7c0.2,6.7,0,13.5,0.1,20.2
				C121.5,362,121.4,368.6,121.5,375.3z M121.5,305.6c0,4.4,2.6,6.9,6.9,6.9c13.2,0,26.5,0,39.7,0c4,0,6.9-2.5,7-6.5
				c0.1-13.7,0.1-27.5,0-41.2c0-4.2-2.6-6.7-6.7-6.8c-13.4-0.1-26.8-0.1-40.2,0c-3.8,0-6.9,2.6-6.8,6.9c0.2,6.8,0.1,13.6,0.1,20.5
				C121.5,292.1,121.4,298.9,121.5,305.6z M190.9,305.7c0,4.2,2.6,6.8,6.8,6.8c13.3,0,26.7-0.1,40,0.1c4,0.1,7.3-3.3,7.3-7.3
				c-0.1-13.3,0-26.6,0-40c0-4.4-2.9-7.2-7.4-7.2c-13.2,0-26.3,0-39.5,0c-4.6,0-7.1,2.4-7.1,7c0,6.8,0,13.5,0,20.2h0
				C190.9,292,190.9,298.9,190.9,305.7z M191,375.5c0,4.4,2.7,7,7.2,7c13.1,0,26.1,0,39.2,0c4.7,0,7.7-2.9,7.7-7.6
				c0-13.1,0-26.3,0-39.5c0-4.4-2.9-7.4-7.2-7.4c-13.2-0.1-26.5-0.1-39.7,0c-4.4,0-7.3,2.7-7.1,7.2c0.2,6.6,0,13.1,0,19.7
				C190.9,361.8,190.9,368.6,191,375.5z M665.8,335.5c0.3,6.6,0.1,13.3,0.1,20c0,6.7-0.1,13.5,0,20.2c0,4.1,2.8,6.7,6.9,6.7
				c13.3,0,26.6,0,40,0c4.1,0,7.2-3.2,7.2-7.2v-39.5c0-4.8-2.5-7.6-7.4-7.6c-13.1-0.1-26.3-0.2-39.5-0.1
				C669.3,328,665.6,330.4,665.8,335.5z M28.1,205c-1,0-2,0.1-3,0c-2-0.3-2.8,0.3-2.6,2.5c0.2,2.3,0.2,4.7,0,7
				c-0.3,2.5,0.6,3.1,3.1,3.1c77.1-0.1,154.2-0.1,231.4-0.1c0.2,0,0.5,0,0.8,0c2.1,0.3,3.1-0.4,2.9-2.7c-0.2-2.1,0-4.3,0-6.5
				c0-3.3,0-3.3-3.3-3.3H28.1z M26.8,458h789.8c0.5,0,1-0.1,1.5,0c1.9,0.2,2.5-0.7,2.4-2.5c-0.1-2.2-0.2-4.3,0-6.5
				c0.3-2.5-0.5-3.1-3.1-3.1C685.7,446,554,446,422.3,446H27.6c-0.6,0-1.2,0.1-1.8,0c-2.1-0.4-2.5,0.6-2.4,2.5c0.1,2.1,0,4.2,0,6.2
				C23.5,458,23.5,458,26.8,458z M832.2,459.9c-273.3,0-546.6,0-819.9,0c-3,0-3.3-0.2-3.3-3.4c0-5.3-0.2-10.6,0.4-15.9
				c0.5-4.2,6.1-9.1,10.8-9.2c1.8,0,3.7,0,5.5,0c1.3,0,1.9-0.5,1.8-1.8c0-0.5,0-1,0-1.5c0-64.4,0-128.8,0.1-193.2
				c0-2.6-0.7-3.2-3.1-3.1c-3.4,0.2-6.9,0.5-10.1-1.5c-3.9-2.4-6.4-5.6-6.3-10.3c0-5.5,0.2-11-0.1-16.5c-0.4-7.8,5.9-12.9,13-13.1
				c0.6,0,1.2,0,1.8,0h234.5c3.3,0,3.3,0,3.3-3.3c0-11.8-0.1-23.7,0.1-35.5c0-2.3-0.7-2.9-2.9-2.8c-3.2,0.1-6.5,0.2-9.6-0.5
				c-4.3-0.9-8.3-4.1-9-8.8c-1-7.5-1-15,0-22.5c0.8-5.8,6.4-9.6,12.3-9.7c20.8,0,41.5,0,62.2,0h63.1c-9.9-12.7-14.5-26.7-13.5-42.3
				c1-15.3,7-28.8,18.2-39.2c23.5-21.8,55.4-19.9,75.7-4.6c13.5,10.2,21.2,23.9,23.3,40.6c2.1,16.8-2.7,31.7-13.1,45.4h3
				c40.6,0,81.2,0,121.7,0c8,0,13.4,5.3,13.4,13.3c0,5.3,0.2,10.7,0,16c-0.3,6.1-3.4,9.6-8.3,11.4c-0.6,0.2-1.1,0.3-1.7,0.3
				c-3.4-0.3-6.7,0.7-10.1,0.5c-1.3-0.1-1.8,0.5-1.8,1.8c0,12.7,0,25.3,0,38c0,1.3,0.6,1.8,1.8,1.7c0.7,0,1.3,0,2,0
				c78.3,0,156.6,0,235,0c4.8,0,9,1.3,11.7,5.7c0.7,1.1,1,2.2,1,3.5c0,7.7-0.2,15.3,0.1,23c0.1,3.4-1.9,5.3-4.1,7
				c-2.4,1.7-5.2,2.6-8.3,2.4c-2-0.1-4.6-0.9-5.7,0.4c-1,1.2-0.4,3.8-0.4,5.8c0,54.1,0.1,108.1-0.1,162.2c0,9.6-0.2,19.3-0.4,28.9
				c0,1.8,0.4,2.2,2.2,2.2c2.6,0,5.2-0.4,7.9,0.4c4.9,1.3,8.5,5.7,8.5,10.7c0,4.7,0,9.3,0,14c0,1.1-0.2,2.2,0.6,3.1
				C834,460.2,833.1,459.9,832.2,459.9z M290.5,212.3c0,5.5,2.7,8.2,8.2,8.2c12.6,0,25.1,0,37.7,0c5.9,0,8.4-2.5,8.4-8.5
				c0-12.2,0-24.5,0-36.7c0-1-0.1-2-0.1-3c-0.1-3.6-3.5-6.6-7.1-6.5c-6.6,0.2-13.3,0.1-20,0.1c-6.4,0-12.8,0.2-19.2-0.1
				c-5.1-0.3-8,3.4-8,8.2C290.6,186.8,290.5,199.5,290.5,212.3z M672.7,312.5c13.3,0,26.6,0,39.9,0c4.4,0,7.3-2.9,7.3-7.3v-39.5
				c0-5.1-2.7-7.8-7.8-7.8c-13,0-26,0-38.9,0c-4.8,0-7.3,2.5-7.4,7.3c0,6.7,0,13.3,0,20h0c0,6.9-0.1,13.8,0,20.7
				C665.9,309.9,668.8,312.5,672.7,312.5z M254.5,122c-1.2-0.1-1.6,0.4-1.5,1.5c0.1,2.5,0,5,0,7.5c0,3.5,0,3.5,3.3,3.5h326.4
				c2.2,0,4.3-0.1,6.5,0c1.5,0.1,1.8-0.5,1.8-1.9c-0.1-2.6-0.2-5.2,0-7.7c0.2-2.4-0.5-3-2.9-3c-44.6,0.1-89.1,0.1-133.7,0
				c-3.1,0-6,0.5-8.8,1.7c-1,0.4-1.9,1-2.9,1.3c-8.3,2.9-16.8,4.6-25.7,3.6c-6.2-0.7-12.1-2-17.9-4.5c-2.5-1-4.9-2.2-7.9-2.2
				c-45,0.1-90,0.1-134.9,0.1C255.7,122,255.1,122.1,254.5,122z M377.6,68.9c-0.2,24.6,19.9,45.6,44.4,45.1
				c24.8,0.4,44.4-20.6,44.3-44.8c0-24.7-19.5-43.5-41.7-44.7C397.1,23.1,377.8,45.5,377.6,68.9z"/>
		</g>
		<g>
		</g>
	</g>
</g>
</svg>
