<?xml version="1.0" encoding="utf-8"?>
<!-- Generator: Adobe Illustrator 25.0.1, SVG Export Plug-In . SVG Version: 6.00 Build 0)  -->
<svg version="1.1" id="Layer_1" xmlns="http://www.w3.org/2000/svg" xmlns:xlink="http://www.w3.org/1999/xlink" x="0px" y="0px"
	 viewBox="0 0 305 276.5" style="enable-background:new 0 0 305 276.5;" xml:space="preserve">
<style type="text/css">
	.st0{fill:#FEFEFE;}
	.st1{fill:#F8DEDE;}
	.st2{fill:#FBD3D3;}
	.st3{fill:#FE3636;}
	.st4{fill:#19385C;}
	.st5{fill:#FD8A8A;}
</style>
<g>
	<path class="st0" d="M62.3,127.2c-3.1,5.9-5.2,12.2-6.9,18.7c-1.7,6.8-2.1,13.6-2,20.5c0.1,8.1,0,16.2,0.1,24.2
		c0,2-0.6,2.5-2.6,2.5c-5.8,0-11.3-1.7-16.9-2.4c-4.2-0.5-6.6-1.8-7-6.8c-0.5-5.5-1.7-10.9-2.5-16.4c-0.1-0.5,0.1-1-0.7-1.3
		c-0.5,0.7-0.3,1.5-0.3,2.3c0,5.3,0,10.7,0,16c0,2.7-0.4,3-3.1,2.2c-5.6-1.4-10.6-4.1-15.7-6.7c-1.5-0.8-3.2-1.4-4.1-3.1
		c-0.2,0-0.4,0-0.5,0c0.2-0.1,0.4-0.2,0.5-0.2s0.1,0,0.2,0c0,0,0,0,0.1,0c5.5,3.5,11.3,6.4,17.4,8.5c0.5,0.2,0.9,0.3,1.4,0.5
		c2.7,0.7,3.1,0.4,3.2-2.3c0-4.6,0-9.2,0-13.7c0-0.8,0-1.7,0.1-2.5c0.1-0.6,0.3-1.4,1.2-1.4c0.7,0,0.9,0.7,1,1.3
		c0.2,2.1,1,4.1,1.1,6.1c0.2,4.6,1.8,9,2.2,13.5c0.1,1.2,0.8,2,2,2.3c6.3,1.3,12.6,2.9,19.2,3.2c3.1,0.1,3.3-0.2,3.3-3.2
		c0-9.8,0.1-19.6,0-29.5c0-3.2,0.4-6.3,1.1-9.4c1.8-9,4.3-17.8,9.2-25.7c2.9-4.7,6.5-8.8,10.8-12.3c0.6-0.5,1.2-0.9,1.8-1.4
		c0.5-0.5,1.5-0.8,1.2-1.7c-0.3-0.7-1.2-0.4-1.8-0.4c-4,0-8,0-12,0c-1.8,0-3.5-0.1-5.1-0.9c-7.4-3.4-14.8-2.3-22.2-0.3
		c-1.5,0.4-3,0.9-4.6,1.3C19.3,112,10.7,119.2,5.1,130c-1.8,3.5-2.4,7.4-2.9,11.3c-0.2,1.5-0.2,3-1.4,4.2c-0.1,0-0.1,0.1-0.2,0.1
		H0.5c-0.2,0-0.3,0-0.5-0.1c0.2,0,0.3,0,0.5,0c1.4-3.7,1.5-7.6,2.4-11.4c0.9-3.9,2.7-7.3,5-10.4c3.3-4.3,7.1-8.2,12-11
		c7.2-4.2,15.2-6,23.2-7.5c4.9-0.9,10.1-0.6,14.8,1.9c1.3,0.7,2.8,0.9,4.2,0.9c4.8,0,9.5,0,14.2,0c0.7,0,1.6-0.4,2,0.6
		c0.3,0.9-0.5,1.3-1.1,1.8C71.3,115,66,120.3,62.3,127.2z"/>
	<path class="st0" d="M36.8,80.4c-6.1-12.3-6-24.5,0.8-36.3c5.1-8.9,12.9-14.5,23-17.1c4.5-1.2,9.2-1.5,13.6-0.7
		c7.7,1.4,15.3,3.7,20.4,10.5c0.7,1,1,2.1,1,3.3c-0.1,3.2,0,6.3,0,9.5c-0.1,5.6-0.4,11.3,1.5,16.7c1.2,3.7,2.6,7.3,4.5,10.6
		c0.9,1.5,0.8,2.9-0.1,4.4C95.7,90,88.2,96.2,78,98.6c-3.5,0.8-7.1,0.2-10.7,0.4c-9,0.4-16.4-3-22.5-9.4
		C42,86.6,38.7,84.2,36.8,80.4z"/>
	<path class="st0" d="M104.9,60c-1-3.9-0.4-8.1-0.3-12.2c0.1-10.8,4.2-19.9,11.5-27.7c1.5-1.6,3.1-3,4.6-4.6c4.3-4.5,9.7-7,15.5-9
		c7.8-2.7,15.8-1.7,23.7-1.2c4.8,0.3,9.6,2.3,13.9,5.1c6.2,4.1,11.6,8.9,15.7,15.1c4.9,7.5,8.4,15.6,7,25.2c1.7,9.2-2.6,17-6.6,24.9
		c-1.3,2.6-4,4.2-5.8,6.5c-5.4,6.4-12.4,10.6-20.2,13.3c-0.5,0.2-1.1,0.5-1.7,0.5c-5.2-0.1-10.3,1.8-15.6,1
		c-9.2-1.3-17.9-3.9-24.9-10.6c-1.4-1.4-2.7-2.9-4.3-4.2C110.4,76.3,107,68.4,104.9,60z"/>
	<path class="st0" d="M237.5,192.3c0.1,2.8-1.8,4-3.9,5.2c-3.5,2-6.9,4.1-10.8,5.4c-1.6,0.5-2.4,2.2-2.2,4.1
		c0.5,8.5-1.2,16.7-4.4,24.5c-1.5,3.7-3.5,7.2-5.4,10.8c-4.4,8-11.6,13.4-17.9,19.6c-3.7,3.6-8.3,6.2-13.3,8
		c-1.9,0.7-3.8,1.7-5.6,2.5c-3.4,1.5-7.2,1.9-10.8,2.6c-1.2,0.2-2.4,0.4-3.6,1c0,0.2,0,0.4,0,0.6c-0.2-0.2-0.2-0.4-0.2-0.6v-0.1
		c0,0,0,0,0-0.1c0.8-1.2,2.1-1.2,3.3-1.4c10.5-1.6,19.9-5.8,28.5-12c2.3-1.6,4.1-3.9,6.1-5.9c1.9-1.9,3.7-3.8,5.7-5.6
		c6.4-6,10.2-13.6,13.3-21.7c2.6-6.9,3.8-14.1,3.6-21.5c-0.1-3.6,0.9-5.1,4.3-6.1c3.9-1.1,6.8-3.8,10.3-5.5c1.5-0.8,2.3-2.4,2.3-4.2
		c0-12.7,0.4-25.3-0.1-38c-0.4-8.7-2.5-17.1-7.2-24.7c-0.2-0.3-0.3-0.6-0.5-0.8c-4.7-4.8-8.8-10.3-14.8-13.7c-7.8-4.4-16.2-7.4-25-9
		c-4.2-0.7-8.4-2.2-12.8-2.1c-1.8,0-3.5,0.2-5.1,1.1c-4.3,2.6-9.1,3.3-13.9,3.7c-8.8,0.7-17.6,0.2-25.9-3.8c-1.7-0.8-3.5-1.2-5.3-1
		c-7.8,1.1-15.5,2.2-23,4.7c-7.2,2.4-14.4,5.3-20.4,10.2c-6.9,5.6-12.2,12.4-15.2,20.9c-2.3,6.2-3.3,12.7-3.4,19.3
		c0,10.2,0,20.5,0,30.7c0,2.6,0.8,4.3,3,5.8c3.3,2.1,6.7,3.8,10.2,5.3c2.5,1.1,3.8,2.8,3.8,5.5c0,4.4,0,8.8,0.9,13.2
		c1.7,8.1,4.8,15.5,8.9,22.6c4.8,8.2,12.3,14,18.9,20.4c3.4,3.3,7.9,5.4,12.4,7.3c5.3,2.3,10.8,3.9,16.5,4.8c1,0.2,2.2,0.2,2.8,1.3
		c0,0,0,0,0,0.1v0.1c0,0.2-0.1,0.4-0.2,0.6c0-0.2,0-0.4,0-0.6c-2.2-1.2-4.8-1.2-7.2-1.7c-7.8-1.5-14.6-5-21.4-8.8
		c-5.5-3.1-9.1-8.2-13.7-12.2c-6.9-6-10.9-13.7-14.3-22c-3.3-8-4.8-16.1-4.4-24.7c0.1-2.6-0.9-4-3.3-5.2c-3.8-1.8-7.6-3.5-11.1-5.9
		c-1.7-1.1-2.7-2.5-2.6-4.7c0.1-10.5,0.1-21,0-31.5c0-9.7,2.2-18.7,6.9-27.3c5.2-9.6,13.3-15.9,22.9-20.4c8.9-4.1,18.2-6.7,28-7.6
		c1-0.1,1.9-0.5,2.9-0.7c2.6-0.5,5-0.4,7.5,0.8c5.3,2.6,10.9,3.7,16.8,3.9c6.9,0.3,13.9,0.1,20.2-2.8c3.8-1.8,7.5-2.7,11.5-2.1
		c4.6,0.8,9.1,1.8,13.6,2.9c7.8,1.8,15.4,4.4,22,9c7.3,5.1,13.6,11.3,17.2,19.8c1.9,4.5,3,9,3.6,13.8
		C238.5,163.2,236.9,177.8,237.5,192.3z"/>
	<path class="st0" d="M199.4,80.8c-0.7-1.2-0.7-2.4-0.1-3.6c4.8-8.6,6.9-17.8,6.2-27.7c-0.2-3.2,0-6.5-0.1-9.7
		c0-1.2,0.3-2.3,1.1-3.2c5.9-6.7,13.4-10,22.2-10.5c5.7-0.3,11.2,0.2,16.6,2.4c3.1,1.3,6,2.8,8.6,4.8c7.8,6.1,12.8,14.2,14.2,24
		c1,6.8,0.7,13.7-2.6,20.2c-1.5,3-2.8,6-5.3,8.2c-3.8,3.4-6.7,7.6-11.5,9.8c-5.3,2.4-10.7,4.5-16.5,3.4c-8.5,1-15.9-1.4-22.3-6.4
		C205.7,89.2,202.1,85.4,199.4,80.8z"/>
	<path class="st0" d="M300.5,174.2c0,2.8-0.9,4.3-3.5,5.6c-5.3,2.6-10.4,5.4-16.1,6.9c-3.1,0.8-3.4,0.6-3.4-2.4c0-5.2,0-10.3,0-15.5
		c0-0.8,0.2-1.7-0.7-3c-0.5,3.2-1,5.9-1.4,8.7c-0.7,4.5-1.4,9-2.2,13.4c-0.2,1-1,1.8-2,2c-7.2,0.9-14.1,3.6-21.5,3.2
		c-1.7-0.1-2.3-0.5-2.3-2.3c0.1-10.6,0.2-21.3,0-32c-0.2-6.2-1.2-12.3-2.9-18.3c-1.3-2.1-1.5-4.6-2-7c-1.6-3-3.1-6.1-4.8-9.1
		c-2.2-3.6-4.6-7.1-7.8-9.9c-0.4-0.4-0.6-0.9-0.9-1.4c-1.4-0.8-2.6-1.8-3.7-2.9c-0.4-0.4-0.9-0.8-0.7-1.5c0.3-0.7,1-0.5,1.5-0.5
		c2.7,0,5.5-0.2,8.2,0c3.7,0.2,7.3-0.3,10.7-1.7c4.5-1.9,9-1.5,13.7-0.9c8.4,1.1,16.2,3.8,23.5,8c4.9,2.8,8.8,6.9,11.8,11.8
		c1.1,1.8,2.2,3.6,3,5.7c2.1,5.6,3.1,11.5,3.3,17.4C300.7,157,300.4,165.6,300.5,174.2z"/>
	<path class="st1" d="M0.8,176.8c-0.1,0.1-0.1,0.1-0.2,0.2c-0.2,0-0.4,0-0.5,0v-31.5c0.2,0,0.3,0,0.5,0l0.1,0.1
		c0.8,0.9,0.7,2.1,0.7,3.2c0,8.3,0,16.6,0,24.9C1.3,174.7,1.5,175.8,0.8,176.8z"/>
	<path class="st2" d="M159.5,276.5h-18c0-0.2,0-0.4,0-0.6c0.1,0,0.1-0.1,0.2-0.1c0.6-0.5,1.4-0.6,2.1-0.6c4.4-0.1,8.9-0.1,13.3,0
		c0.8,0,1.5,0.1,2.1,0.6c0,0,0.1,0.1,0.2,0.1C159.5,276.1,159.5,276.3,159.5,276.5z"/>
	<path class="st3" d="M186.5,195.4c0,4.2,0.6,8.6-1.6,12.5c-2.2,4-4.2,8.3-7.5,11.6c-4.8,4.9-9.6,9.7-14.5,14.5
		c-3.3,3.2-7.2,5.6-11,8.1c-1,0.6-1.8,0.6-2.8,0c-4-2.2-7.7-4.9-11-8.1c-5-4.8-10-9.6-14.6-14.7c-3.8-4.2-6.8-9.1-8.6-14.6
		c-0.8-2.4-0.2-4.8-0.5-6.9c0.1-3.6-0.8-7.2,1.9-9.8c3.3-3.3,5.8-7.9,11-8.6c6.4-0.8,12.9-1.5,17.5,4.6c1.6,2.1,4,3.3,4.8,6.2
		c0.4,1.7,1.6,0.1,1.8-0.4c1.4-3.1,4-5,6.2-7.4c1.4-1.5,3-2.6,5.1-2.9c4.2-0.8,8.4-1,12.5,0.3C180.9,181.5,186.5,189.5,186.5,195.4z
		"/>
	<path class="st4" d="M236.6,148.7c-0.6-4.8-1.7-9.4-3.6-13.8c-3.5-8.5-9.8-14.7-17.2-19.8c-6.6-4.6-14.2-7.2-22-9
		c-4.5-1.1-9-2.1-13.6-2.9c-4-0.7-7.7,0.3-11.5,2.1c-6.3,2.9-13.3,3-20.2,2.8c-5.8-0.2-11.5-1.3-16.8-3.9c-2.5-1.2-4.9-1.3-7.5-0.8
		c-1,0.2-1.9,0.6-2.9,0.7c-9.8,0.9-19.2,3.5-28,7.6c-9.6,4.5-17.7,10.8-22.9,20.4c-4.6,8.6-6.9,17.6-6.9,27.3c0,10.5,0.1,21,0,31.5
		c0,2.2,0.9,3.6,2.6,4.7c3.5,2.3,7.3,4.1,11.1,5.9c2.4,1.1,3.4,2.6,3.3,5.2c-0.4,8.5,1.1,16.7,4.4,24.7c3.5,8.2,7.5,16,14.3,22
		c4.6,4,8.2,9.1,13.7,12.2c6.8,3.8,13.6,7.4,21.4,8.8c2.4,0.5,5,0.5,7.2,1.7h17.9c1.1-0.6,2.3-0.7,3.6-1c3.6-0.7,7.4-1.1,10.8-2.6
		c1.9-0.8,3.7-1.8,5.6-2.5c5-1.7,9.6-4.4,13.3-8c6.3-6.2,13.5-11.6,17.9-19.6c1.9-3.5,3.9-7.1,5.4-10.8c3.2-7.8,4.9-16,4.4-24.5
		c-0.1-1.9,0.6-3.6,2.2-4.1c3.9-1.2,7.3-3.4,10.8-5.4c2.1-1.2,4-2.4,3.9-5.2C236.9,177.8,238.5,163.2,236.6,148.7z M191.6,247.5
		c-4.8,5.3-10.6,9-17,12.1c-7.8,3.7-15.7,5-23.3,4.4c-7.4,0.2-13.8,0.1-20.2-2.3c-14.3-5.4-25.1-14.9-32.6-27.9
		c-4.6-7.9-7.2-16.8-7.2-26.3c0-7.6,0.8-14.9,3.6-21.9c1.7-4.4,3.9-8.5,6.4-12.5c4.3-6.9,10.1-12.3,16.7-16.8
		c6.9-4.7,14.7-7.9,22.9-9c6.6-0.9,13.5-0.8,20.4,0.3c5.4,0.9,10.4,2.9,15.3,5c3.7,1.6,7.3,3.8,10.5,6.5c3.8,3.3,7.5,6.6,10.5,10.6
		c3.3,4.5,5.7,9.6,8,14.7c4.1,9.1,4.9,18.7,3.7,28.3c-1.4,11.7-5.9,22.3-14.1,31.1C194,245.1,192.7,246.2,191.6,247.5z"/>
	<path class="st4" d="M189.7,75.6c-1.3,2.6-4,4.2-5.8,6.5c-5.4,6.4-12.4,10.6-20.2,13.3c-0.5,0.2-1.1,0.5-1.7,0.5
		c-5.2-0.1-10.3,1.8-15.6,1c-9.2-1.3-17.9-3.9-24.9-10.6c-1.4-1.4-2.7-2.9-4.3-4.2c-6.9-5.9-10.2-13.8-12.3-22.2
		c-1-3.9-0.4-8.1-0.3-12.2c0.1-10.8,4.2-19.9,11.5-27.7c1.5-1.6,3.1-3,4.6-4.6c4.3-4.5,9.7-7,15.5-9c7.8-2.7,15.8-1.7,23.7-1.2
		c4.8,0.3,9.6,2.3,13.9,5.1c6.2,4.1,11.6,8.9,15.7,15.1c4.9,7.5,8.4,15.6,7,25.2C198,59.9,193.7,67.7,189.7,75.6z"/>
	<path class="st4" d="M77.3,110.4c-6.1,4.6-11.4,9.9-15,16.7c-3.1,5.9-5.2,12.2-6.9,18.7c-1.7,6.8-2.1,13.6-2,20.5
		c0.1,8.1,0,16.2,0.1,24.2c0,2-0.6,2.5-2.6,2.5c-5.8,0-11.3-1.7-16.9-2.4c-4.2-0.5-6.6-1.8-7-6.8c-0.5-5.5-1.7-10.9-2.5-16.4
		c-0.1-0.5,0.1-1-0.7-1.3c-0.5,0.7-0.3,1.5-0.3,2.3c0,5.3,0,10.7,0,16c0,2.7-0.4,3-3.1,2.2c-5.6-1.4-10.6-4.1-15.7-6.7
		c-1.5-0.8-3.2-1.4-4.1-3.1v-0.2c0-10.4,0-20.8,0-31.2v-0.1c1.4-3.7,1.5-7.6,2.4-11.4c0.9-3.9,2.7-7.3,5-10.4c3.3-4.3,7.1-8.2,12-11
		c7.2-4.2,15.2-6,23.2-7.5c4.9-0.9,10.1-0.6,14.8,1.9c1.3,0.7,2.8,0.9,4.2,0.9c4.8,0,9.5,0,14.2,0c0.7,0,1.6-0.4,2,0.6
		C78.7,109.5,78,110,77.3,110.4z"/>
	<path class="st4" d="M300.5,174.2c0,2.8-0.9,4.3-3.5,5.6c-5.3,2.6-10.4,5.4-16.1,6.9c-3.1,0.8-3.4,0.6-3.4-2.4c0-5.2,0-10.3,0-15.5
		c0-0.8,0.2-1.7-0.7-3c-0.5,3.2-1,5.9-1.4,8.7c-0.7,4.5-1.4,9-2.2,13.4c-0.2,1-1,1.8-2,2c-7.2,0.9-14.1,3.6-21.5,3.2
		c-1.7-0.1-2.3-0.5-2.3-2.3c0.1-10.6,0.2-21.3,0-32c-0.2-6.2-1.2-12.3-2.9-18.3c-0.8-2.3-0.9-4.8-2-7c-1.5-3.9-3.2-7.7-5.5-11.1
		c-2.2-3.4-4.9-6.6-8.1-9.4c-1.4-0.8-2.6-1.8-3.7-2.9c-0.4-0.4-0.9-0.8-0.7-1.5c0.3-0.7,1-0.5,1.5-0.5c2.7,0,5.5-0.2,8.2,0
		c3.7,0.2,7.3-0.3,10.7-1.7c4.5-1.9,9-1.5,13.7-0.9c8.4,1.1,16.2,3.8,23.5,8c4.9,2.8,8.8,6.9,11.8,11.8c1.1,1.8,2.2,3.6,3,5.7
		c2.1,5.6,3.1,11.5,3.3,17.4C300.7,157,300.4,165.6,300.5,174.2z"/>
	<path class="st4" d="M265.6,77.5c-1.5,3-2.8,6-5.3,8.2c-3.8,3.4-6.7,7.6-11.5,9.8c-5.3,2.4-10.7,4.5-16.5,3.4
		c-8.5,1-15.9-1.4-22.3-6.4c-4.2-3.2-7.8-7-10.4-11.6c-0.7-1.2-0.7-2.4-0.1-3.6c4.8-8.6,6.9-17.8,6.2-27.7c-0.2-3.2,0-6.5-0.1-9.7
		c0-1.2,0.3-2.3,1.1-3.2c5.9-6.7,13.4-10,22.2-10.5c5.7-0.3,11.2,0.2,16.6,2.4c3.1,1.3,6,2.8,8.6,4.8c7.8,6.1,12.8,14.2,14.2,24
		C269.2,64.1,268.8,71,265.6,77.5z"/>
	<path class="st4" d="M101.3,81.3C95.7,90,88.2,96.2,78,98.6c-3.5,0.8-7.1,0.2-10.7,0.4c-9,0.4-16.4-3-22.5-9.4
		c-2.8-2.9-6-5.3-7.9-9.2c-6.1-12.3-6-24.5,0.8-36.3c5.1-8.9,12.9-14.5,23-17.1c4.5-1.2,9.2-1.5,13.6-0.7C82,27.7,89.6,30,94.7,36.8
		c0.7,1,1,2.1,1,3.3c-0.1,3.2,0,6.3,0,9.5c-0.1,5.6-0.4,11.3,1.5,16.7c1.2,3.7,2.6,7.3,4.5,10.6C102.3,78.4,102.2,79.8,101.3,81.3z"
		/>
	<path class="st5" d="M242.5,133.5c-1.6-3-3.1-6.1-4.8-9.1c-2.2-3.6-4.6-7.1-7.8-9.9c-0.4-0.4-0.6-0.9-0.9-1.4
		c2.4,0.7,3.7,2.7,5.1,4.4c3.4,4.1,5.8,8.9,8.1,13.6C242.6,131.8,242.5,132.7,242.5,133.5z"/>
	<path class="st5" d="M244.5,140.5c-1.3-2.1-1.5-4.6-2-7C244.1,135.5,244.3,138,244.5,140.5z"/>
	<path class="st0" d="M184.9,207.8c-2.2,4-4.2,8.3-7.5,11.6c-4.8,4.9-9.6,9.7-14.5,14.5c-3.3,3.2-7.2,5.6-11,8.1
		c-1,0.6-1.8,0.6-2.8,0c-4-2.2-7.7-4.9-11-8.1c-5-4.8-10-9.6-14.6-14.7c-3.8-4.2-6.8-9.1-8.6-14.6c-0.8-2.4-0.2-4.8-0.5-6.9
		c0.1-3.6-0.8-7.2,1.9-9.8c3.3-3.3,5.8-7.9,11-8.6c6.4-0.8,12.9-1.5,17.5,4.6c1.6,2.1,4,3.3,4.8,6.2c0.4,1.7,1.6,0.1,1.8-0.4
		c1.4-3.1,4-5,6.2-7.4c1.4-1.5,3-2.6,5.1-2.9c4.2-0.8,8.4-1,12.5,0.3c5.6,1.8,11.2,9.7,11.2,15.6
		C186.5,199.6,187.1,203.9,184.9,207.8z"/>
	<path class="st3" d="M184.9,207.8c-2.2,4-4.2,8.3-7.5,11.6c-4.8,4.9-9.6,9.7-14.5,14.5c-3.3,3.2-7.2,5.6-11,8.1
		c-1,0.6-1.8,0.6-2.8,0c-4-2.2-7.7-4.9-11-8.1c-5-4.8-10-9.6-14.6-14.7c-3.8-4.2-6.8-9.1-8.6-14.6c-0.8-2.4-0.2-4.8-0.5-6.9
		c0.1-3.6-0.8-7.2,1.9-9.8c3.3-3.3,5.8-7.9,11-8.6c6.4-0.8,12.9-1.5,17.5,4.6c1.6,2.1,4,3.3,4.8,6.2c0.4,1.7,1.6,0.1,1.8-0.4
		c1.4-3.1,4-5,6.2-7.4c1.4-1.5,3-2.6,5.1-2.9c4.2-0.8,8.4-1,12.5,0.3c5.6,1.8,11.2,9.7,11.2,15.6
		C186.5,199.6,187.1,203.9,184.9,207.8z"/>
</g>
</svg>
