<?xml version="1.0" encoding="utf-8"?>
<!-- Generator: Adobe Illustrator 25.0.1, SVG Export Plug-In . SVG Version: 6.00 Build 0)  -->
<svg version="1.1" id="Layer_1" xmlns="http://www.w3.org/2000/svg" xmlns:xlink="http://www.w3.org/1999/xlink" x="0px" y="0px"
	 viewBox="0 0 50.9 49" style="enable-background:new 0 0 50.9 49;" xml:space="preserve">
<style type="text/css">
	.st0{fill:#FFFFFF;}
</style>
<g>
	<path class="st0" d="M26.4,0C13.1,0,1.9,11.2,1.9,24.5S13,49,26.3,49s24.6-11.2,24.6-24.5C50.9,11.3,39.7,0,26.4,0z M41.3,29.2
		c-3.1,3.6-7,5.8-10.9,5.7c5.4-3.5,8.2-8.2,7.8-14.6c-0.2-3.1-1.1-6.1-3.7-8.1c-2.9-2.2-5.5-1.7-8.1,1.6c-0.7,0.9-1.1,1.2-2,0.2
		c-1.6-2-3.8-2.9-6.2-1.8c-2.6,1.2-3.9,3.5-4.3,6.3c-0.8,6,1.7,10.8,5.2,15.3c4.1,5.4,9.3,6.9,15.6,5c0.2,0.2,0.4,0.4,0.6,0.6
		c-10.8,5.7-22.4,1.1-25.6-10.3C7.1,19.8,13.4,9.8,23.1,7.8c9.5-1.9,19.1,5,20.5,14.5C43.9,25.1,43.1,27.2,41.3,29.2z M25,32.4
		c-0.9,0.2-1.4-0.3-1.9-0.8c-3.8-3.8-5-8.3-4.2-13.5c0.1-0.7,0.3-1.3,1-1.6c0.8-0.3,1.2,0.3,1.7,0.8c1.4,1.2,2.2,2.9,2.8,4.7
		c0.5,1.4,1,2.8,1.6,4.5c1.4-3.3,1.9-6.4,3.4-9.1c0.4-0.8,1-1.8,1.9-1.8c1.2,0,1.5,1.2,1.9,2.1C35.7,23.8,31.6,31.3,25,32.4z"/>
	<path class="st0" d="M26.4,0C13.1,0,1.9,11.2,1.9,24.5S13,49,26.3,49s24.6-11.2,24.6-24.5C50.9,11.3,39.7,0,26.4,0z M41.3,29.2
		c-3.1,3.6-7,5.8-10.9,5.7c5.4-3.5,8.2-8.2,7.8-14.6c-0.2-3.1-1.1-6.1-3.7-8.1c-2.9-2.2-5.5-1.7-8.1,1.6c-0.7,0.9-1.1,1.2-2,0.2
		c-1.6-2-3.8-2.9-6.2-1.8c-2.6,1.2-3.9,3.5-4.3,6.3c-0.8,6,1.7,10.8,5.2,15.3c4.1,5.4,9.3,6.9,15.6,5c0.2,0.2,0.4,0.4,0.6,0.6
		c-10.8,5.7-22.4,1.1-25.6-10.3C7.1,19.8,13.4,9.8,23.1,7.8c9.5-1.9,19.1,5,20.5,14.5C43.9,25.1,43.1,27.2,41.3,29.2z M25,32.4
		c-0.9,0.2-1.4-0.3-1.9-0.8c-3.8-3.8-5-8.3-4.2-13.5c0.1-0.7,0.3-1.3,1-1.6c0.8-0.3,1.2,0.3,1.7,0.8c1.4,1.2,2.2,2.9,2.8,4.7
		c0.5,1.4,1,2.8,1.6,4.5c1.4-3.3,1.9-6.4,3.4-9.1c0.4-0.8,1-1.8,1.9-1.8c1.2,0,1.5,1.2,1.9,2.1C35.7,23.8,31.6,31.3,25,32.4z"/>
	<path class="st0" d="M35.4,39.4c-0.2-0.2-0.4-0.4-0.6-0.6C35.3,38.7,35.4,39,35.4,39.4z"/>
	<path class="st0" d="M37.6,37.4c-0.4,1.1-1.2,1.7-2.2,2c-0.2-0.2-0.4-0.4-0.6-0.6C35.7,38.4,36.6,37.9,37.6,37.4z"/>
</g>
</svg>
