<?xml version="1.0" encoding="utf-8"?>
<!-- Generator: Adobe Illustrator 25.0.1, SVG Export Plug-In . SVG Version: 6.00 Build 0)  -->
<svg version="1.1" id="Capa_1" xmlns="http://www.w3.org/2000/svg" xmlns:xlink="http://www.w3.org/1999/xlink" x="0px" y="0px"
	 viewBox="0 0 512 512" style="enable-background:new 0 0 512 512;" xml:space="preserve">
<style type="text/css">
	.st0{fill:#FF3636;}
	.st1{fill:#EC5569;}
	.st2{fill:#FFF5F5;}
</style>
<path class="st0" d="M412.4,0H99.6C47.5,0,5.3,42.2,5.3,94.3v205.2c0,52.1,42.2,94.3,94.3,94.3h44.9c2.1,0,3.9,1.7,3.9,3.9v101.2
	c0,12,14.6,17.8,22.8,9l106.2-112.9c0.7-0.8,1.8-1.2,2.8-1.2h132.2c52.1,0,94.3-42.2,94.3-94.3V94.3C506.7,42.2,464.5,0,412.4,0z"/>
<path class="st1" d="M361.9,122.3L361.9,122.3c-23.9-23.9-62.7-23.9-86.7,0l-13.5,13.5c-3.2,3.2-8.4,3.2-11.7,0l-13.3-13.3
	c-23.9-23.9-62.7-23.9-86.7,0l0,0c-23.9,23.9-23.9,62.7,0,86.7l100,100c3.2,3.2,8.5,3.2,11.7,0L361.9,209
	C385.8,185.1,385.8,146.3,361.9,122.3z"/>
<path class="st2" d="M361.9,122.3L361.9,122.3c-23.9-23.9-62.7-23.9-86.7,0l-13.5,13.5c-3.2,3.2-8.4,3.2-11.7,0l-13.3-13.3
	c-23.9-23.9-62.7-23.9-86.7,0l0,0c-23.9,23.9-23.9,62.7,0,86.7l100,100c3.2,3.2,8.5,3.2,11.7,0L361.9,209
	C385.8,185.1,385.8,146.3,361.9,122.3z"/>
</svg>
