<?xml version="1.0" encoding="utf-8"?>
<!-- Generator: Adobe Illustrator 25.0.1, SVG Export Plug-In . SVG Version: 6.00 Build 0)  -->
<svg version="1.1" id="Layer_1" xmlns="http://www.w3.org/2000/svg" xmlns:xlink="http://www.w3.org/1999/xlink" x="0px" y="0px"
	 viewBox="0 0 471 209" style="enable-background:new 0 0 471 209;" xml:space="preserve">
<style type="text/css">
	.st0{fill:#FEFEFE;}
	.st1{fill:#E60011;}
	.st2{fill:#FEFDFD;}
	.st3{fill:#FEFEFD;}
	.st4{fill:#FDFBFB;}
	.st5{fill:#FEFCFC;}
	.st6{fill:#ECAAA7;}
</style>
<g>
	<g id="XMLID_1_">
		<g>
			<path class="st0" d="M423.9,59.5c6.3-0.3,6.3-0.4,6.3,5.8v12.5c0,4.9,4,7.4,8.4,5.1c2-1,2.2-3,2.2-5c0-5.4,0.1-10.8,0-16.2
				c0-1.8,0.6-2.2,2.3-2.2c5.9,0,5.9,0,5.9,5.8c-0.1,5.1,0.2,10.1-0.2,15.2c-0.4,4.7-3.1,7.4-7.3,8.8c-3.8,1.2-7.7,1.2-11.5-0.1
				c-4.5-1.5-7-4.6-7.3-9.4c-0.2-3.2,0-6.3,0-9.5c-0.3,0-0.4,0-0.4,0v-9.2C422.3,59.9,422.7,59.6,423.9,59.5z"/>
			<path class="st0" d="M415.4,103.3c6.1,0,6.1-0.1,6.1,6c0,5.1,0.1,10.2,0,15.2c0,1.5,0.3,2,1.9,2c3.7-0.1,7.5,0,11.2-0.1
				c1.7-0.1,2.1,0.5,2.1,2.1c0,4.4,0.1,4.4-4.5,4.4h-17c-1.4,0-1.9-0.4-1.8-1.8c0.1-4.2,0-8.5,0-12.9v-12.7
				C413.4,104,413.6,103.3,415.4,103.3z"/>
			<path class="st0" d="M411.4,59.5c6.2-0.1,6.2-0.1,6.2,6.1v21.2c0,1.7-0.2,2.5-2.2,2.4c-5.8-0.1-5.8,0-5.8-5.8
				c-0.1-3.1-0.1-6.2-0.1-9.2c0-4.2,0.1-8.5,0-12.7C409.5,60.1,409.7,59.5,411.4,59.5z"/>
			<path class="st0" d="M390.2,89.7c-9.7,0-15.7-5.8-15.7-15.4c0-9.8,5.9-15.7,15.7-15.7c9.8,0,15.9,6,15.9,15.5
				C406.1,83.9,400.1,89.7,390.2,89.7z M397.9,73.7c0-0.3-0.1-1.3-0.3-2.2c-0.8-4.2-3.1-6.3-7-6.5c-4.1-0.1-6.6,1.8-7.7,6
				c-0.6,2.6-0.4,5.2,0.4,7.8c1,3,3.5,4.7,6.6,4.8C395,83.8,397.9,80.3,397.9,73.7z"/>
			<path class="st1" d="M401.9,117.4c0.1,7.1-3.2,10.6-8.6,10.1c-0.1,0-0.2,0-0.2,0c-3-0.5-5.1-2.2-5.8-5.1c-1-4.2-1.3-8.5,2.2-11.9
				c2.4-2.2,5.4-2.2,8.2-0.9C401.3,111.3,401.8,114.7,401.9,117.4z"/>
			<path class="st1" d="M397.6,71.5c0.2,0.9,0.3,1.9,0.3,2.2c0,6.6-2.9,10.1-8,9.9c-3.1-0.1-5.6-1.8-6.6-4.8c-0.8-2.6-1-5.2-0.4-7.8
				c1.1-4.2,3.6-6.1,7.7-6C394.5,65.2,396.8,67.3,397.6,71.5z"/>
			<path class="st0" d="M394.1,102.7c9.8-0.1,16,5.9,16,15.5s-5.9,15.5-15.8,15.6c-9.6,0.1-15.8-5.8-15.8-15.3
				C378.4,108.7,384.3,102.8,394.1,102.7z M393.3,127.5c5.4,0.5,8.7-3,8.6-10.1c-0.1-2.7-0.6-6.1-4.2-7.8c-2.8-1.3-5.8-1.3-8.2,0.9
				c-3.5,3.4-3.2,7.7-2.2,11.9c0.7,2.9,2.8,4.6,5.8,5.1C393.1,127.5,393.2,127.5,393.3,127.5z"/>
			<path class="st2" d="M378.5,170.1c0-1.2,0.2-1.8,1.6-1.7c3.4,0.1,6.8,0.1,10.2,0c1.2,0,1.6,0.3,1.6,1.5c0,1.1-0.1,2-1.6,1.9
				c-2-0.1-4,0-6,0c-1.1,0-1.4,0.4-1.4,1.5c0,1.1,0.4,1.5,1.5,1.4c1.7,0,3.3,0.1,5,0c1.4-0.1,1.6,0.5,1.7,1.8c0,1.4-0.5,1.7-1.8,1.6
				c-1.5-0.1-3,0.1-4.5,0c-1.4-0.1-1.9,0.3-1.9,1.8c0,1.4,0.4,1.9,1.8,1.8c1.8-0.1,3.7,0.1,5.5,0c1.4-0.1,1.9,0.4,1.9,1.8
				s-0.5,1.6-1.8,1.6c-3.4-0.1-6.8-0.1-10.2,0c-1.3,0-1.8-0.3-1.7-1.7c0.2-2.3,0.1-4.5,0.1-6.8C378.5,174.4,378.6,172.3,378.5,170.1
				z"/>
			<path class="st0" d="M371.6,160.5c-2.2,0.1-3-0.5-2.7-2.7c0.2-1.9,0-3.9,0-5.8c0-2.2,0.1-4.3,0-6.5c-0.1-1.9,1-1.7,2.2-1.7
				c1.2,0,2.7-0.3,2.4,1.8c-0.1,0.3,0.1,0.7,0,1c-0.5,2.7,0.7,3,3.1,3.1c2.6,0.1,3.5-0.7,3-3.2c-0.3-1.9,0.1-2.8,2.4-2.8
				c2.6,0,2.1,1.5,2.1,2.9c0,4-0.1,8,0.1,12c0.1,2-1,1.9-2.3,1.9c-1.3,0-2.6,0.1-2.3-1.9c0.1-0.7-0.1-1.3,0-2c0.4-2.4-0.3-3.2-3-3.2
				c-2.6,0-3.4,0.7-3.3,3.3C373.4,157.9,374.9,160.4,371.6,160.5z"/>
			<path class="st0" d="M369.9,184.4c-4.1,2.5-9.8,0.5-11.4-4c-1.2-3.4-1.1-6.8,1.5-9.6c2.6-2.9,6-3.3,9.6-2.5
				c1.3,0.3,2.3,0.9,3.2,1.9c0.7,0.9,2.3,2.3,1.3,3s-3.1,1-4.3-0.4c-1.6-1.7-3.4-2-5.3-0.8c-1.9,1.3-2.6,4.9-1.5,7.3
				c1,2.2,2.7,2.9,4.9,2.5c0.6-0.1,1.3-0.4,1.8-0.9c0.4-0.3,0.9-1,0.8-1.4c-0.1-0.8-0.9-0.5-1.4-0.5c-1.2,0-2.3,0.2-2.3-1.7
				c0-2,1.4-1.4,2.4-1.5h1c4.4,0.2,4.4,0.2,4.4,4.7v3c0,0.5,0.3,1.3-0.5,1.4c-0.7,0.1-1.8,0.4-2.1-0.3
				C371.4,182.7,370.6,184,369.9,184.4z"/>
			<path class="st1" d="M368.4,117.5c0.1,7-3.2,10.5-8.6,10c-0.1,0-0.2,0-0.2,0c-3-0.5-5.1-2.2-5.8-5.1c-1-4.2-1.3-8.5,2.2-11.9
				c2.4-2.2,5.4-2.2,8.2-0.9C367.8,111.3,368.3,114.7,368.4,117.5z"/>
			<path class="st0" d="M360.6,133.8c-9.8,0-15.7-5.9-15.7-15.7c0-9.5,6.1-15.5,15.8-15.4c9.8,0.1,15.9,6,15.9,15.6
				S370.5,133.8,360.6,133.8z M359.8,127.5c5.4,0.5,8.7-3,8.6-10c-0.1-2.8-0.6-6.2-4.2-7.9c-2.8-1.3-5.8-1.3-8.2,0.9
				c-3.5,3.4-3.2,7.7-2.2,11.9c0.7,2.9,2.8,4.6,5.8,5.1C359.6,127.5,359.7,127.5,359.8,127.5z"/>
			<path class="st0" d="M353.8,147.1c-1.4,0.3-1.8-0.5-1.8-1.8s0.5-1.5,1.6-1.5c1.9,0.1,3.8,0,5.7,0h5.5c1.2,0,1.8,0.2,1.8,1.6
				c0,1.5-0.6,2-1.9,1.7c-2.7-0.5-3.4,0.7-3.2,3.3c0.2,2.4,0,4.8,0.1,7.2c0,1.6,0.3,3-2.2,2.9c-2.4,0-2.5-1-2.4-2.8
				c0.1-2.4-0.2-4.8,0.1-7.2C357.4,147.9,356.7,146.6,353.8,147.1z"/>
			<path class="st2" d="M341.9,169.9c0-1.1,0.3-1.5,1.4-1.4c3.5,0.1,7,0.1,10.5,0c1.4,0,1.4,0.7,1.4,1.7s-0.2,1.8-1.5,1.7
				c-1.6-0.1-3.2-0.1-4.7,0c-1,0.1-2.7-0.8-2.6,1.5c0.1,2.3,1.7,1.2,2.7,1.3c1.1,0.2,2.3,0.1,3.5,0c1.4-0.1,1.9,0.3,1.9,1.8
				c0,1.4-0.6,1.6-1.8,1.6c-1.5-0.1-3,0.1-4.5,0c-1.4-0.1-1.8,0.4-1.9,1.8c0,1.5,0.5,1.8,1.9,1.8c1.9-0.1,3.8,0.1,5.7,0
				c1.5-0.1,1.5,0.8,1.5,1.9c0,1.2-0.3,1.6-1.5,1.6c-3.6-0.1-7.1-0.1-10.7,0c-1.1,0-1.4-0.4-1.4-1.5c0.2-2.5,0.1-4.8,0.1-7.1V169.9z
				"/>
			<path class="st0" d="M350.3,89.2c-6.5,0.3-6.5,0.4-6.5-6.1V61.6c0-1.6,0.3-2.1,2-2.1c6,0,6-0.1,6,6.1c0,4.6,0,4.6,4.5,4.6
				c2.1,0,4.8,0.7,6-0.3c1.4-1.2,0.4-4.1,0.5-6.2c0.1-4,0-4,4-4s4,0,4,4c0.2,3.4,0.2,7,0.2,10.6c0,4.2-0.1,8.5,0,12.7
				c0,1.5-0.2,2.2-2,2.2c-6.1,0-6.1,0.1-6.1-6c0-2.1,0.9-4.8-0.4-6c-1.4-1.4-4.1-0.4-6.2-0.4c-4.4-0.1-4.4,0-4.4,4.4
				c0,2.2-0.1,4.3,0,6.5C351.9,88.9,351.5,89.2,350.3,89.2z"/>
			<path class="st2" d="M341.7,160.5c-1.6,0.1-2-0.6-1.9-2c0.2-2.2,0.1-4.4,0.1-6.5s0.1-4.2,0-6.2c-0.2-1.8,0.8-2,2.2-2
				c1.5,0,2.5,0.1,2.4,2.1c-0.2,3.1,0,6.1-0.1,9.2c0,1.4,0.4,1.9,1.8,1.8c1.6-0.1,3.2,0.1,4.7,0c1.4-0.1,2.1,0.2,2,1.9
				c0,1.6-0.7,1.7-2,1.7C347.8,160.4,344.7,160.4,341.7,160.5z"/>
			<path class="st1" d="M330,151.8c0.8,2.3,0.6,2.4-1.8,2.2c-1.1-0.1-1.3-0.4-0.9-1.3c0.4-0.9,0.6-1.9,0.9-2.8
				c0.1-0.4,0.3-0.8,0.6-1.3C329.2,149.8,329.6,150.8,330,151.8z"/>
			<path class="st2" d="M323.4,160.4c-3.3,0.1-3.3,0.2-2.1-2.9c1.5-4.1,3.2-8.2,4.6-12.4c0.5-1.5,1.5-1.4,2.5-1.3
				c1.2,0.2,2.7-0.8,3.4,1.1c1.8,5.1,3.7,10.2,5.7,15.5h-3.6c-0.7,0-1.2-0.1-1.5-0.9c-0.3-0.8-0.2-2-1.4-2.1c-1.7-0.1-3.3-0.1-5,0.1
				c-0.7,0.1-0.7,1.1-0.8,1.7C324.9,160.3,324.3,160.4,323.4,160.4z M328.2,154c2.4,0.2,2.6,0.1,1.8-2.2c-0.4-1-0.8-2-1.2-3.2
				c-0.3,0.5-0.5,0.9-0.6,1.3c-0.3,0.9-0.5,1.9-0.9,2.8C326.9,153.6,327.1,153.9,328.2,154z"/>
			<path class="st0" d="M328.7,185.1c-2,0.1-2.4-0.6-2.2-2.4c0.1-2,0-4,0-6c0-2.2,0.1-4.5,0-6.7c-0.1-2,1.3-1.5,2.3-1.5
				c1.1,0,2.3-0.4,2.2,1.6c-0.1,3.1,0.1,6.3-0.1,9.5c-0.1,1.7,0.5,2.2,2.1,2c1.5-0.1,3,0,4.5,0c1.4-0.1,2,0.2,2.1,1.8
				c0,1.8-0.9,1.7-2.2,1.7C334.5,185.1,331.6,184.9,328.7,185.1z"/>
			<path class="st0" d="M301.9,18c6.2-0.2,6.2-0.2,6.2,5.9v12.7c0,3.9,1.5,5.5,5.1,5.5c3.9,0,5.4-1.4,5.4-5.4c0-5.6,0.1-11.2,0-16.7
				c0-1.5,0.4-2,2-2c6.2-0.1,6.2-0.1,6.2,6v5c-0.2,0-0.2,0-0.3,0c0,3.1,0.1,6.2,0,9.2c-0.3,5.4-3.2,8.7-8.5,9.9
				c-3.2,0.7-6.4,0.7-9.6-0.1c-5.2-1.3-8.1-5.3-8.2-11.6c-0.1-5.5,0-11-0.1-16.5C300.1,18.6,300.3,18,301.9,18z"/>
			<path class="st0" d="M319.9,103.1c5.7,0.1,5.7,0,5.7,5.7c-0.1,1.9-0.1,3.5-0.1,5.3c3.3-3.1,6.4-6,9.3-9c1.3-1.3,2.5-2,4.3-1.8
				c2.1,0.2,4.3,0,6.4,0c-3.3,3.5-6.4,7-9.8,10.2c-1.7,1.6-2,2.6-0.4,4.6c3.8,4.7,7.3,9.6,11.3,14.8h-8.8c-1,0-1.4-0.8-1.9-1.4
				c-2.1-2.7-4-5.5-6.1-8.2c-0.5-0.7-0.9-2.3-2-1.7c-1.1,0.6-2.4,1.5-2.3,3.2c0.1,2.2,0,4.3,0,6.5c0.1,1.3-0.4,1.7-1.7,1.7
				c-6.3,0.2-6.2,0.3-6.2-5.9v-21.5C317.6,103.9,317.9,103.1,319.9,103.1z"/>
			<path class="st0" d="M314.3,81.4c-0.4-1.7,0.1-2.3,1.8-2.1c0.8,0.1,1.7,0,2.5,0c1.9-0.1,3.2-0.1,4,2.4c1,3.1,7.6,3.7,9.7,1.2
				c1.1-1.3,0.7-2.9-1.1-3.5c-2.1-0.8-4.3-1.3-6.4-2c-2-0.6-3.9-1.3-5.8-2.4c-2.7-1.6-4.3-3.9-4.3-7.1c0-3.4,1.5-6,4.6-7.5
				c5.2-2.5,10.4-2.4,15.7,0c1.2,0.6,2.2,1.5,3,2.6c1,1.5,2.1,3.2,1.4,4.8c-0.6,1.3-2.5,0.4-3.9,0.5c-1.8,0.2-3.3,0.3-4.3-2.1
				c-1-2.3-6.2-2.6-8-0.7c-1.3,1.4-0.9,2.6,0.6,3.5c2.3,1.4,5,1.9,7.4,2.8c1.4,0.5,2.8,1,4.2,1.5c3.3,1.3,5.1,3.7,5.1,7.3
				c0,3.7-1.8,6.3-5.1,7.9c-2.7,1.3-5.6,1.6-8.1,1.5C319.5,90,315.6,87.2,314.3,81.4z"/>
			<path class="st2" d="M313,185.1c-1.6,0.1-2-0.5-1.9-2c0.1-2.1,0-4.2,0-6.3c0-2.1,0.1-4.2,0-6.2c-0.1-1.8,0.6-2.2,2.3-2.2
				c1.6,0,2.4,0.2,2.3,2.1c-0.2,3.1,0,6.1-0.1,9.2c0,1.4,0.5,1.9,1.9,1.8c1.6-0.1,3.2,0.1,4.7,0s2.1,0.3,2,1.9c0,1.6-0.7,1.7-2,1.7
				C319.1,185,316,185,313,185.1z"/>
			<path class="st0" d="M310.8,160.5c-1.8-0.2-4.5,0.9-5.9-0.4c-1.3-1.3-0.4-4.1-0.4-6.2c-0.1-2.7,0-5.5,0-8.2c0-1.3,0.2-2,1.7-1.9
				c3.3,0.1,6.6,0.1,10,0c1.3,0,1.7,0.4,1.7,1.7c0,1.4-0.6,1.7-1.8,1.6c-1.9-0.1-3.8,0.1-5.7,0c-1.4-0.1-1.4,0.7-1.4,1.7
				c0,1.1,0.4,1.5,1.4,1.4c1.7-0.1,3.5,0.1,5.2,0c1.4-0.1,1.4,0.7,1.4,1.7c0,1.1-0.2,1.7-1.5,1.6c-1.6-0.1-3.2,0.1-4.7,0
				c-1.3-0.1-1.9,0.3-1.9,1.8c0,1.4,0.4,1.9,1.8,1.8c1.6-0.1,3.2-0.1,4.7,0c1.2,0,2.7-0.5,2.7,1.8c0,2.2-1.4,1.5-2.5,1.6
				C314.1,160.6,312.6,160.5,310.8,160.5z"/>
			<path class="st0" d="M309,89.1c-6.3,0.2-6.3,0.2-6.3-5.9V61.5c0-1.6,0.5-2.1,2.1-2.1c6,0,6-0.1,6,5.9c0.1,3,0.1,6,0.1,9
				c0,4.3-0.1,8.7,0,13C310.9,88.7,310.4,89.1,309,89.1z"/>
			<path class="st1" d="M303.3,176.7c0,3.2-1.6,5.1-4.1,5.2c-2.7,0.1-4.3-1.8-4.3-5.2c0-3.3,1.4-5.1,4-5.2
				C301.6,171.4,303.3,173.4,303.3,176.7z"/>
			<path class="st0" d="M307.4,129.6c-7.3,5.8-16.2,5.3-21.2-1.3c-4-5.4-4.2-11.6-1.5-17.5c2.5-5.6,7.4-8.1,13.5-8.3
				c5.8-0.2,10.9,1.2,13.8,7c1.3,2.8,1.2,3-1.9,3c-1,0-2-0.1-3,0c-1.2,0.1-1.9-0.3-2.6-1.3c-2.7-3.6-8.6-3.5-11.2,0.2
				c-2.8,3.8-2.8,9.5-0.2,13.4c2.8,4,9.3,4.1,12,0c0.3-0.5,0.8-1.3,0.7-1.8c-0.2-0.8-1.1-0.4-1.7-0.4c-0.7-0.1-1.3-0.1-2,0
				c-2.6,0.5-3.2-0.6-3.1-3.1c0.1-2,0.5-2.7,2.6-2.6c3.3,0.2,6.7,0.1,10,0c1.2,0,1.6,0.3,1.6,1.5c-0.1,4.3,0,8.7,0,13
				c0,0.8,0.1,1.9-1.2,1.6c-1.3-0.4-3.2,1.3-3.9-1.2C307.7,131.1,307.6,130.4,307.4,129.6z"/>
			<path class="st2" d="M298.7,185.5c-5.3-0.2-8.6-3.9-8.5-9.3c0.2-5,3.9-8.4,9-8.2c5.4,0.2,8.7,3.6,8.6,8.9
				C307.6,182.4,304.1,185.7,298.7,185.5z M299.2,181.9c2.5-0.1,4.1-2,4.1-5.2c0-3.3-1.7-5.3-4.4-5.2c-2.6,0.1-4,1.9-4,5.2
				C294.9,180.1,296.5,182,299.2,181.9z"/>
			<path class="st3" d="M287.5,160.5c-1.7-0.2-2.1-0.6-2-2.2c0-2-0.1-4.1-0.1-6.2c0-2.2,0.1-4.5,0-6.7c-0.1-1.8,1-1.6,2.1-1.5
				c1,0.1,2.6-0.6,2.4,1.4c0,0.4,0.1,0.8,0,1.2c-0.4,2.5,0.4,3.4,3,3.1c3-0.3,3.2-0.1,3.1-3.8c-0.1-2,0.9-2.1,2.4-2.1s2.2,0.2,2.2,2
				c-0.1,4.3-0.1,8.7,0,13c0.1,1.9-1.1,1.7-2.2,1.7s-2.5,0.4-2.3-1.6c0.1-1-0.1-2,0-3c0.3-2-0.5-2.5-2.4-2.4c-3.7,0.1-3.7,0-3.7,3.9
				C290,159.1,290.4,160.8,287.5,160.5z"/>
			<path class="st2" d="M286.9,182.2c-2,2.9-6.2,4-10.1,2.7c-3.1-1-5.1-4.4-5.1-8.1c0.1-6.8,6.4-10.8,12.6-8.1
				c0.9,0.4,1.7,1,2.3,1.8c0.7,0.9,1.9,2.4,1,3c-1.1,0.7-2.9,1-4.2-0.5c-1.5-1.7-3.7-2.1-5.3-1c-1.8,1.2-2.5,4.8-1.4,7.3
				c0.9,2.1,2.5,2.7,4.7,2.3c1-0.2,1.7-0.7,2.1-1.6c0.3-0.5,0.5-1.1,1.2-1c1,0.1,2.5-0.5,3.1,0.3
				C288.4,180.2,287.5,181.3,286.9,182.2z"/>
			<path class="st0" d="M272.9,62c-0.3-0.8-0.5-1.5-0.9-2.5c2.5,0,4.9,0.1,7.2,0c1.5-0.1,1.5,0.9,1.8,1.9c1.7,6.1,3.5,12.2,5.4,19
				c1.6-5.5,3.1-10.4,4.6-15.3c1.6-5.5,1.6-5.5,7.5-5.5c0.7-0.1,1.4-0.1,2.6-0.1c-3.5,9.7-7,19-10.4,28.4c-0.3,0.9-0.8,1.2-1.8,1.3
				c-6,0.4-6,0.4-8-5.2C278.2,76.7,275.5,69.3,272.9,62z"/>
			<path class="st2" d="M273.9,24.1c-1.3,0.1-1.7-0.4-1.7-1.7c-0.1-4.3-0.2-4.3,4.1-4.3h9.2c3.6,0,7.2,0.1,10.7,0
				c1.6,0,2.4,0.3,2.1,2c0,0.1,0,0.2,0,0.2c0,3.7,0,3.7-3.6,3.7c-5.4,0-5.4,0-5.4,5.5v16.2c0,1.4-0.3,2-1.9,2.1
				c-6.2,0.2-6.2,0.2-6.2-6c0-5.2-0.1-10.5,0-15.7c0-1.7-0.5-2.2-2.1-2.1C277.4,24.1,275.6,24,273.9,24.1z"/>
			<path class="st1" d="M272.9,112.2c0.1,1.8-0.8,3.1-2.6,3.5c-1.3,0.4-2.6,0.3-3.9,0.4c-4.3-0.1-4.1-0.1-4.3-4.4
				c-0.1-2.3,0.7-2.9,2.8-2.7c1.7,0.2,3.5,0.2,5.2,0.3C271.8,109.5,272.8,110.5,272.9,112.2z"/>
			<path class="st0" d="M252.1,29.4c-0.1,0.9,0.2,1.4,1.2,1.4c2.2-0.1,4.5,0.1,6.7-0.3c1.9-0.4,2.8-1.6,2.8-3.5s-1.2-2.8-3-3
				c-1.2-0.1-2.3,0-3.5,0c-4.3,0-4.3,0-4.2,4.2C252.1,28.6,252.1,29,252.1,29.4z M244,19.7c0-1.4,0.5-1.7,1.7-1.7
				c5.7,0.2,11.5-0.3,17.2,0.4c4.2,0.5,6.7,2.2,7.5,5.4c1,4-0.1,6.7-3.8,9.3c0,0.2-0.1,0.3-0.3,0.6c2.9,1.2,3.3,3.7,3.5,6.5
				c0.1,2.1-0.2,4.3,1,6.3c0.5,0.8,0,1.2-0.9,1.2h-6.2c-1,0-1.2-0.6-1.4-1.4c-0.5-1.7-0.3-3.5-0.4-5.2c-0.2-3.1-1.1-4.1-4.2-4.4
				c-5.7-0.6-5.7-0.6-5.7,5.1c0,0.1,0,0.2,0,0.2c0,6.3,0,6.2-6.4,5.7c-1.2-0.1-1.6-0.5-1.6-1.6V19.7z"/>
			<path class="st1" d="M263.8,68.4c0,1.8-0.9,3.1-2.6,3.4c-1.3,0.3-2.8,0.2-4.2,0.3c-4-0.1-3.8-0.1-4-4.2c-0.1-2.3,0.6-3.1,2.9-2.8
				c1.7,0.2,3.5,0,5.2,0.3C262.8,65.7,263.8,66.7,263.8,68.4z"/>
			<path class="st1" d="M262.8,27c0,1.9-0.9,3.1-2.8,3.5c-2.2,0.4-4.5,0.2-6.7,0.3c-1,0-1.3-0.5-1.2-1.4c0-0.4,0-0.8,0-1.2
				C252,24,252,24,256.3,24c1.2,0,2.3-0.1,3.5,0C261.6,24.2,262.8,25.1,262.8,27z"/>
			<path class="st2" d="M258.9,146.5c-0.3-2.2,0.5-2.9,2.7-2.7c1.5,0.1,2,0.4,2,2c-0.1,2.8,0,5.6,0,8.5c0,2.1,1,3.1,3,3.1
				s2.8-1.2,2.8-3.1c0-3,0.1-6,0-9c0-1.6,0.9-1.6,1.9-1.4c1,0.1,2.6-0.7,2.6,1.3c0,3.5,0.3,7-0.2,10.4c-0.5,3.7-3.4,5.6-7.7,5.4
				s-6.7-2.3-6.9-6c-0.2-1.7-0.1-3.4-0.2-5C258.9,148.8,259,147.7,258.9,146.5z"/>
			<path class="st2" d="M254.2,185c-1.7-0.2-4.5,0.9-5.9-0.4c-1.3-1.3-0.3-4.1-0.4-6.2c-0.1-2.7,0-5.5,0-8.2c0-1.2,0.3-1.8,1.6-1.7
				c3.4,0.1,6.8,0.1,10.2,0c1.3,0,1.5,0.6,1.4,1.7c0,1-0.1,1.8-1.4,1.8c-1.9-0.1-3.8,0-5.7,0c-1.1,0-1.7,0.2-1.7,1.5
				c0,1.4,0.8,1.4,1.8,1.4c1.5,0,3,0.1,4.5,0c1.3-0.1,1.9,0.3,1.9,1.8c0,1.4-0.6,1.7-1.8,1.6c-1.5-0.1-3,0.1-4.5,0
				c-1.4-0.1-1.9,0.4-1.9,1.8c0,1.5,0.6,1.8,1.9,1.8c1.7-0.1,3.5,0,5.2,0c1.4-0.1,2.1,0.2,2.1,1.8c0,1.7-0.9,1.6-2,1.6
				C257.9,185,256.2,185,254.2,185z"/>
			<path class="st0" d="M254.2,105.5c0-1.3,0.1-2.2,1.8-2.1c5.5,0.1,11,0,16.5,0.2c6.9,0.3,10.4,6,7.5,11.7
				c-0.8,1.6-2.1,2.5-3.9,3.6c3.2,1.3,3.7,3.8,3.8,6.6c0.1,2.1-0.2,4.3,1,6.3c0.5,0.8,0,1.2-0.8,1.2h-6.2c-1,0-1.2-0.6-1.4-1.4
				c-0.5-1.9-0.4-3.8-0.5-5.7c-0.2-2.6-1.3-3.7-3.9-3.9c-6-0.5-6-0.5-6,5.6c0,5.5,0,5.4-5.6,5.5c-1.6,0-2.3-0.2-2.3-2.1
				C254.3,122.5,254.3,114,254.2,105.5z M270.3,115.7c1.8-0.4,2.7-1.7,2.6-3.5c-0.1-1.7-1.1-2.7-2.8-2.9c-1.7-0.1-3.5-0.1-5.2-0.3
				c-2.1-0.2-2.9,0.4-2.8,2.7c0.2,4.3,0,4.3,4.3,4.4C267.7,116,269,116.1,270.3,115.7z"/>
			<path class="st0" d="M245.3,61.5c0-1.6,0.5-2.1,2.1-2.1c5.5,0.2,11-0.3,16.5,0.3c3.8,0.4,7,1.6,7.9,5.9c0.7,4.1-0.7,7.2-4.7,9.4
				c3.1,1.3,3.7,3.6,3.8,6.3c0.1,2.2-0.2,4.5,1,6.6c0.5,0.8,0.1,1.2-0.8,1.2h-6.2c-1,0-1.2-0.5-1.4-1.4c-0.5-1.9-0.4-3.8-0.5-5.7
				c-0.1-2.4-1.3-3.6-3.6-3.9c-6.1-0.8-6.2-0.7-6.2,5.3c0,5.8,0,5.8-5.9,5.7c-1.8,0-2-0.7-2-2.2C245.4,78.4,245.4,69.9,245.3,61.5z
				 M261.2,71.8c1.7-0.3,2.6-1.6,2.6-3.4c0-1.7-1-2.7-2.7-3c-1.7-0.3-3.5-0.1-5.2-0.3c-2.3-0.3-3,0.5-2.9,2.8c0.2,4.1,0,4.1,4,4.2
				C258.4,72,259.9,72.1,261.2,71.8z"/>
			<path class="st2" d="M242,145.4c0-1.3,0.4-1.8,1.7-1.7c2,0.2,3.9,0.1,5.8,0.1s3.8,0.1,5.7,0c1.3-0.1,1.5,0.6,1.5,1.7
				s-0.2,1.6-1.5,1.7c-3.5,0.2-3.5,0.3-3.5,3.9c0,2.6-0.1,5.2,0,7.7c0.1,2.1-1.4,1.6-2.5,1.6c-1.2,0.1-2.3,0.2-2.2-1.7
				c0.1-3.1-0.1-6.2,0.1-9.2c0.1-2-0.5-2.6-2.5-2.5C243.5,147.1,242,147.6,242,145.4z"/>
			<path class="st1" d="M242.7,118.3c0.1,6.2-3.2,9.8-8.6,9.3c-3.1-0.3-5.2-2.1-5.9-4.9c-1.2-4.3-1.4-8.7,2.2-12.1
				c2.3-2.2,5.4-2.2,8.2-0.9C242.1,111.3,242.7,114.7,242.7,118.3z"/>
			<path class="st0" d="M225.4,78.7c0,4.4-0.1,4.4,4.3,4.4c3.3,0,6.7,0.1,10,0c1.5,0,2,0.4,2,2c0,4.1,0.1,4.1-4.1,4.1
				c-2.8-0.1-5.5-0.1-8.3-0.1c-3.3,0-6.7-0.1-10,0c-1.4,0-2.1-0.2-2-1.9c0.1-8.7,0.1-17.3,0-26c0-1.4,0.5-1.8,1.8-1.8
				c6.7,0.1,13.3,0.1,20,0c1.7,0,2.1,0.5,2.1,2.1c0,4,0,4-3.9,4c-3.2,0-6.5,0.2-9.7-0.1c-2.5-0.2-2.1,1.2-2.2,2.8
				c-0.1,1.7,0,2.8,2.3,2.7c3.3-0.2,6.7,0,10-0.1c1.6,0,2.4,0.3,2.2,2.1c-0.1,0.7-0.1,1.3,0,2c0.2,1.5-0.4,2.1-2,2
				c-3.5-0.1-7,0-10.5-0.1C225.9,76.8,225.4,77.1,225.4,78.7z"/>
			<path class="st1" d="M239.8,173.6c0.1,2.1-1.8,1.8-3.1,1.9c-1.5,0-2.9,0.5-2.8-1.8c0.1-1.6,0.5-2.3,2.1-2.1
				C237.5,171.9,239.8,171.1,239.8,173.6z"/>
			<path class="st0" d="M218.2,47.7c-1.8-0.1-3.7,0-5.5,0c-1.3,0-1.4-0.6-1-1.6c3.4-9,6.9-18,10.3-27c0.3-0.8,0.7-1.3,1.6-1.2h0.7
				c2.2,0,4.9-0.6,6.6,0.3c1.7,1,1.8,3.9,2.6,6c2.6,6.8,5.2,13.7,7.8,20.5c1.1,2.9,1.1,2.9-2,2.9c-0.5,0.2-1,0.2-2,0.2
				c-2.7,0.8-4.4-0.5-4.8-3.7c-0.2-1.5-1.1-1.8-2.5-1.7c-1.3,0.1-2.7,0-4,0c-4.3,0-4.4,0-6,4C219.6,47.3,219.2,47.8,218.2,47.7z
				 M229.7,35.6c0.1-0.1,0-0.3-0.1-0.5c-0.9-2.8-1.9-5.6-3.1-9.1c-1.2,3.4-2,6.2-2.9,9c-0.3,1,0.2,1.5,1.1,1.3
				C226.3,36,228.2,37,229.7,35.6z"/>
			<path class="st0" d="M234.9,133.8c-9.8-0.2-15.6-5.9-15.5-15.6c0-9.7,5.8-15.4,15.6-15.5c9.8-0.1,16.1,6.1,16,15.7
				C251,127.9,244.7,133.9,234.9,133.8z M234.1,127.6c5.4,0.5,8.7-3.1,8.6-9.3c0-3.6-0.6-7-4.1-8.6c-2.8-1.3-5.9-1.3-8.2,0.9
				c-3.6,3.4-3.4,7.8-2.2,12.1C228.9,125.5,231,127.3,234.1,127.6z"/>
			<path class="st1" d="M235.5,149.1c0,2.2-1.9,1.8-3.2,1.9c-1.4,0-2.9,0.4-2.7-1.8c0.1-1.6,0.5-2.3,2.1-2.1
				C233.2,147.4,235.4,146.6,235.5,149.1z"/>
			<path class="st0" d="M229.3,170.3c0-1.4,0.3-1.9,1.8-1.8c2.5,0.1,5,0,7.5,0.1c2.3,0,4.6,0.5,5.4,3c0.9,2.3-0.1,4.1-2.2,5.6
				c3.1,1.9,1.3,5.2,2.7,7.7c-0.9,0-1.5,0-2.2,0.1c-2.2,0.4-3-0.6-2.9-2.7c0-1.6,0.1-3.2-2.2-3.5c-3-0.4-3.3-0.2-3.3,2.8
				c0,1.9,0.5,3.9-2.7,3.4c-1.5-0.2-1.9-0.6-1.9-2C229.4,178.8,229.4,174.5,229.3,170.3z M236.7,175.5c1.3-0.1,3.2,0.2,3.1-1.9
				c0-2.5-2.3-1.7-3.8-2c-1.6-0.2-2,0.5-2.1,2.1C233.8,176,235.2,175.5,236.7,175.5z"/>
			<path class="st1" d="M229.6,35.1c0.1,0.2,0.2,0.4,0.1,0.5c-1.5,1.4-3.4,0.4-5,0.7c-0.9,0.2-1.4-0.3-1.1-1.3
				c0.9-2.8,1.7-5.6,2.9-9C227.7,29.5,228.7,32.3,229.6,35.1z"/>
			<path class="st4" d="M228.1,99.8c-0.7-0.5-0.1-1.2,0.1-1.8c1.1-2.6,3.2-3.6,6.1-2.8c1.9,0.5,3.8,1.4,5.4-0.8
				c0.3-0.5,1.3-0.4,1.9,0c0.7,0.5,0,1.1-0.2,1.5c-0.7,2.2-2.2,3.5-4.7,3.3c-0.8-0.2-1.6-0.4-2.4-0.5c-1.4-0.2-2.9-0.7-4.1,0.9
				C229.7,100.3,228.7,100.2,228.1,99.8z"/>
			<path class="st2" d="M232.3,151c1.3-0.1,3.2,0.3,3.2-1.9c-0.1-2.5-2.3-1.7-3.8-2c-1.6-0.2-2,0.5-2.1,2.1
				C229.4,151.4,230.9,151,232.3,151z M227.1,160.3c-1.5-0.2-2.2-0.3-2.2-2.1c0.1-4.2,0.1-8.5,0-12.7c0-1.3,0.3-1.8,1.7-1.7
				c2.8,0.1,5.7,0.1,8.5,0.1c2.1,0,3.8,0.8,4.6,2.8c0.7,1.9,0.3,3.6-1.3,5c-0.3,0.3-0.9,0.8-0.6,0.9c2.7,1.6,1.1,4.5,2.1,6.6
				c0.2,0.4,0.3,0.7,0.5,1.2c-0.8,0-1.2-0.1-1.6,0c-2.5,0.4-3.7-0.5-3.6-3.1c0.1-1.3,0-2.7-1.8-3.1c-2.9-0.7-3.6-0.3-3.5,2.6
				C229.9,158.8,230.3,160.7,227.1,160.3z"/>
			<path class="st1" d="M218.2,173.5c1.2,1.4,1.4,3.2,2.1,4.8c-1.3,0.5-2.4,0.2-3.7,0.2C217.2,176.8,217.7,175.2,218.2,173.5z"/>
			<path class="st0" d="M209.9,184.9c2-5.3,3.8-10.5,5.8-15.6c0.7-1.8,2.5-0.7,3.7-0.9c1-0.2,1.7,0.1,2.1,1.2
				c1.8,5.1,3.7,10,5.7,15.3c-2.5,0-5,1-5.8-2.5c-0.2-0.9-5.9-0.8-6.1,0.2C214.7,186.1,212.1,184.7,209.9,184.9z M220.3,178.3
				c-0.7-1.6-0.9-3.4-2.1-4.8c-0.5,1.7-1,3.3-1.6,5C217.9,178.5,219,178.8,220.3,178.3z"/>
			<path class="st1" d="M213.7,148.7c1.2,1.6,1.5,3.3,2,5.1c-1.2,0.3-2.3,0.2-3.6,0C212.6,152.1,213.2,150.5,213.7,148.7z"/>
			<path class="st2" d="M191.9,24.3c-2.4,0.3-2.9-0.7-2.8-2.9c0.2-3.7-0.3-3.1,3.3-3.1c3.2-0.3,6.5-0.2,9.7-0.2
				c3.7,0,7.5,0.1,11.2,0c1.5,0,2,0.4,2,2c0,4.1,0.1,4.1-4.1,4.1c-5,0-5,0-5,4.9c0,5.6-0.1,11.1,0,16.7c0,1.6-0.5,2.1-2.1,2.1
				c-6,0.1-6,0.1-6-5.9V26.3c0-1.5-0.3-2.3-2-2.1C194.7,24.3,193.3,24.1,191.9,24.3z"/>
			<path class="st2" d="M205.4,160.4c2-5.3,3.9-10.4,5.7-15.5c0.5-1.3,1.6-1.1,2.5-1c1.1,0.1,2.6-0.7,3.3,0.9
				c1.9,5.1,3.8,10.2,5.8,15.6c-2.5,0-5,1.1-5.7-2.4c-0.2-1-5.9-0.9-6.1,0C210.2,161.5,207.7,160.3,205.4,160.4z M215.7,153.8
				c-0.5-1.8-0.8-3.5-2-5.1c-0.5,1.8-1.1,3.4-1.6,5.1C213.4,154,214.5,154.1,215.7,153.8z"/>
			<path class="st2" d="M197.1,178c0.4,1.9,1.2,3.5,3.4,3.7c1.5,0.2,2.8-0.2,3.7-1.5c0.3-0.5,0.4-1.3,1.4-1.2c1,0.2,2.4-0.6,3,0.5
				c0.5,1-0.3,2-1,2.9c-1.9,2.7-4.7,3.2-7.7,3c-3.4-0.3-5.7-2.1-6.8-5.3c-2.4-6.2,1.9-12.3,8.3-12.1c2.4,0.1,4.6,0.6,6.2,2.7
				c0.6,0.9,1.7,2.2,0.8,2.8c-1,0.7-2.9,1-4-0.4c-1.4-1.8-3.2-2.1-5.1-1.3C197.6,172.5,196.6,175.3,197.1,178z"/>
			<path class="st0" d="M195,133.1c-0.9,0.2-3,1.2-3-1.5c0.1-8.8,0-17.6,0-26.5c0-0.2-0.1-0.6,0-0.7c1.8-2.2,4.3-0.4,6.3-0.9
				c1.1-0.3,1.6,0.3,1.6,1.5c-0.1,3,0,6.1,0,9.1c3.1-3,6.2-5.7,9-8.7c1.5-1.5,2.9-2.2,5-2c2,0.2,4,0,5.9,0c-2.9,3.1-5.8,6.2-8.7,9.2
				c-3.2,3.3-3.2,3.2-0.5,6.9c3.5,4.3,6.8,8.7,10.4,13.5c-3.1,0-5.7-0.1-8.3,0c-1.1,0-1.7-0.4-2.2-1.2c-2.1-2.8-4.1-5.6-6.3-8.4
				c-0.5-0.7-0.9-2.3-2-1.7c-1.1,0.6-2.4,1.5-2.3,3.3c0.1,2.2,0.3,4.4,0,6.5C199.4,134.9,196.6,132.7,195,133.1z"/>
			<path class="st5" d="M193.7,147.1c-1,0.2-2,0.2-2-1.4c0-1.3,0.3-2,1.8-1.9c1.8,0.1,3.7,0,5.7,0c1.8,0,3.7,0.1,5.5,0
				c1.3-0.1,1.7,0.5,1.7,1.8c0,1.2-0.4,1.6-1.6,1.6c-3.4,0.2-3.4,0.2-3.4,3.7c0,2.5-0.2,5,0,7.5c0.2,2.2-1.1,2-2.6,2.1
				c-1.8,0.1-2.3-0.5-2.2-2.2c0.1-2.7-0.1-5.3,0.1-8C196.9,147.9,196.4,146.6,193.7,147.1z"/>
			<path class="st1" d="M422.7,70.3c0,3.2-0.2,6.3,0,9.5c0.3,4.8,2.8,7.9,7.3,9.4c3.8,1.3,7.7,1.3,11.5,0.1c4.2-1.4,6.9-4.1,7.3-8.8
				c0.4-5.1,0.1-10.1,0.2-15.2c0-5.8,0-5.8-5.9-5.8c-1.7,0-2.3,0.4-2.3,2.2c0.1,5.4,0,10.8,0,16.2c0,2-0.2,4-2.2,5
				c-4.4,2.3-8.4-0.2-8.4-5.1V65.3c0-6.2,0-6.1-6.3-5.8c-1.2,0.1-1.6,0.4-1.6,1.6v9.2C422.3,70.3,422.4,70.3,422.7,70.3z
				 M413.4,131.1c-0.1,1.4,0.4,1.8,1.8,1.8h17c4.6,0,4.5,0,4.5-4.4c0-1.6-0.4-2.2-2.1-2.1c-3.7,0.1-7.5,0-11.2,0.1
				c-1.6,0-1.9-0.5-1.9-2c0.1-5,0-10.1,0-15.2c0-6.1,0-6-6.1-6c-1.8,0-2,0.7-2,2.2v12.7C413.4,122.6,413.5,126.9,413.4,131.1z
				 M409.6,83.4c0,5.8,0,5.7,5.8,5.8c2,0.1,2.2-0.7,2.2-2.4V65.6c0-6.2,0-6.2-6.2-6.1c-1.7,0-1.9,0.6-1.9,2c0.1,4.2,0,8.5,0,12.7
				C409.5,77.2,409.5,80.3,409.6,83.4z M390.2,89.7c9.9,0,15.9-5.8,15.9-15.6c0-9.5-6.1-15.5-15.9-15.5c-9.8,0-15.7,5.9-15.7,15.7
				C374.5,83.9,380.5,89.7,390.2,89.7z M378.4,183.4c-0.1,1.4,0.4,1.7,1.7,1.7c3.4-0.1,6.8-0.1,10.2,0c1.3,0,1.8-0.2,1.8-1.6
				s-0.5-1.9-1.9-1.8c-1.8,0.1-3.7-0.1-5.5,0c-1.4,0.1-1.8-0.4-1.8-1.8c0-1.5,0.5-1.9,1.9-1.8c1.5,0.1,3-0.1,4.5,0
				c1.3,0.1,1.8-0.2,1.8-1.6c-0.1-1.3-0.3-1.9-1.7-1.8c-1.7,0.1-3.3,0-5,0c-1.1,0.1-1.5-0.3-1.5-1.4c0-1.1,0.3-1.5,1.4-1.5
				c2,0,4-0.1,6,0c1.5,0.1,1.6-0.8,1.6-1.9c0-1.2-0.4-1.5-1.6-1.5c-3.4,0.1-6.8,0.1-10.2,0c-1.4-0.1-1.6,0.5-1.6,1.7
				c0.1,2.2,0,4.3,0,6.5C378.5,178.9,378.6,181.1,378.4,183.4z M394.1,102.7c-9.8,0.1-15.7,6-15.6,15.8c0,9.5,6.2,15.4,15.8,15.3
				c9.9-0.1,15.8-6,15.8-15.6S403.9,102.6,394.1,102.7z M368.9,145.5c0.1,2.2,0,4.3,0,6.5c0,1.9,0.2,3.9,0,5.8
				c-0.3,2.2,0.5,2.8,2.7,2.7c3.3-0.1,1.8-2.6,1.7-3.8c-0.1-2.6,0.7-3.3,3.3-3.3c2.7,0,3.4,0.8,3,3.2c-0.1,0.7,0.1,1.3,0,2
				c-0.3,2,1,1.9,2.3,1.9c1.3,0,2.4,0.1,2.3-1.9c-0.2-4-0.1-8-0.1-12c0-1.4,0.5-2.9-2.1-2.9c-2.3,0-2.7,0.9-2.4,2.8
				c0.5,2.5-0.4,3.3-3,3.2c-2.4-0.1-3.6-0.4-3.1-3.1c0.1-0.3-0.1-0.7,0-1c0.3-2.1-1.2-1.8-2.4-1.8
				C369.9,143.8,368.8,143.6,368.9,145.5z M367.9,181.8c-2.2,0.4-3.9-0.3-4.9-2.5c-1.1-2.4-0.4-6,1.5-7.3c1.9-1.2,3.7-0.9,5.3,0.8
				c1.2,1.4,3.3,1.1,4.3,0.4s-0.6-2.1-1.3-3c-0.9-1-1.9-1.6-3.2-1.9c-3.6-0.8-7-0.4-9.6,2.5c-2.6,2.8-2.7,6.2-1.5,9.6
				c1.6,4.5,7.3,6.5,11.4,4c0.7-0.4,1.5-1.7,2.1,0.2c0.3,0.7,1.4,0.4,2.1,0.3c0.8-0.1,0.5-0.9,0.5-1.4v-3c0-4.5,0-4.5-4.4-4.7h-1
				c-1,0.1-2.4-0.5-2.4,1.5c0,1.9,1.1,1.7,2.3,1.7c0.5,0,1.3-0.3,1.4,0.5c0.1,0.4-0.4,1.1-0.8,1.4
				C369.2,181.4,368.5,181.7,367.9,181.8z M353.8,147.1c2.9-0.5,3.6,0.8,3.3,3.4c-0.3,2.4,0,4.8-0.1,7.2c-0.1,1.8,0,2.8,2.4,2.8
				c2.5,0.1,2.2-1.3,2.2-2.9c-0.1-2.4,0.1-4.8-0.1-7.2c-0.2-2.6,0.5-3.8,3.2-3.3c1.3,0.3,1.9-0.2,1.9-1.7c0-1.4-0.6-1.6-1.8-1.6
				h-5.5c-1.9,0-3.8,0.1-5.7,0c-1.1,0-1.6,0.2-1.6,1.5S352.4,147.4,353.8,147.1z M344.9,118.1c0,9.8,5.9,15.7,15.7,15.7
				c9.9,0,16-5.9,16-15.5s-6.1-15.5-15.9-15.6C351,102.6,344.9,108.6,344.9,118.1z M343.8,83.1c0,6.5,0,6.4,6.5,6.1
				c1.2,0,1.6-0.3,1.6-1.5c-0.1-2.2,0-4.3,0-6.5c0-4.4,0-4.5,4.4-4.4c2.1,0,4.8-1,6.2,0.4c1.3,1.2,0.4,3.9,0.4,6c0,6.1,0,6,6.1,6
				c1.8,0,2-0.7,2-2.2c-0.1-4.2,0-8.5,0-12.7c0-3.6,0-7.2-0.2-10.6c0-4,0-4-4-4s-3.9,0-4,4c-0.1,2.1,0.9,5-0.5,6.2
				c-1.2,1-3.9,0.3-6,0.3c-4.5,0-4.5,0-4.5-4.6c0-6.2,0-6.1-6-6.1c-1.7,0-2,0.5-2,2.1V83.1z M341.9,176.6c0,2.3,0.1,4.6-0.1,7.1
				c0,1.1,0.3,1.5,1.4,1.5c3.6-0.1,7.1-0.1,10.7,0c1.2,0,1.5-0.4,1.5-1.6c0-1.1,0-2-1.5-1.9c-1.9,0.1-3.8-0.1-5.7,0
				c-1.4,0-1.9-0.3-1.9-1.8c0.1-1.4,0.5-1.9,1.9-1.8c1.5,0.1,3-0.1,4.5,0c1.2,0,1.8-0.2,1.8-1.6c0-1.5-0.5-1.9-1.9-1.8
				c-1.2,0.1-2.4,0.2-3.5,0c-1-0.1-2.6,1-2.7-1.3c-0.1-2.3,1.6-1.4,2.6-1.5c1.5-0.1,3.1-0.1,4.7,0c1.3,0.1,1.5-0.7,1.5-1.7
				s0-1.7-1.4-1.7c-3.5,0.1-7,0.1-10.5,0c-1.1-0.1-1.4,0.3-1.4,1.4V176.6z M339.8,158.5c-0.1,1.4,0.3,2.1,1.9,2c3-0.1,6.1-0.1,9.2,0
				c1.3,0,2-0.1,2-1.7c0.1-1.7-0.6-2-2-1.9c-1.5,0.1-3.1-0.1-4.7,0c-1.4,0.1-1.8-0.4-1.8-1.8c0.1-3.1-0.1-6.1,0.1-9.2
				c0.1-2-0.9-2.1-2.4-2.1c-1.4,0-2.4,0.2-2.2,2c0.1,2,0,4.1,0,6.2S340,156.3,339.8,158.5z M328.8,168.5c-1,0-2.4-0.5-2.3,1.5
				c0.1,2.2,0,4.5,0,6.7c0,2,0.1,4,0,6c-0.2,1.8,0.2,2.5,2.2,2.4c2.9-0.2,5.8,0,8.7,0c1.3,0,2.2,0.1,2.2-1.7
				c-0.1-1.6-0.7-1.9-2.1-1.8c-1.5,0-3-0.1-4.5,0c-1.6,0.2-2.2-0.3-2.1-2c0.2-3.2,0-6.4,0.1-9.5
				C331.1,168.1,329.9,168.5,328.8,168.5z M321.3,157.5c-1.2,3.1-1.2,3,2.1,2.9c0.9,0,1.5-0.1,1.8-1.2c0.1-0.6,0.1-1.6,0.8-1.7
				c1.7-0.2,3.3-0.2,5-0.1c1.2,0.1,1.1,1.3,1.4,2.1c0.3,0.8,0.8,0.9,1.5,0.9h3.6c-2-5.3-3.9-10.4-5.7-15.5c-0.7-1.9-2.2-0.9-3.4-1.1
				c-1-0.1-2-0.2-2.5,1.3C324.5,149.3,322.8,153.4,321.3,157.5z M317.6,127.1c0,6.2-0.1,6.1,6.2,5.9c1.3,0,1.8-0.4,1.7-1.7
				c0-2.2,0.1-4.3,0-6.5c-0.1-1.7,1.2-2.6,2.3-3.2c1.1-0.6,1.5,1,2,1.7c2.1,2.7,4,5.5,6.1,8.2c0.5,0.6,0.9,1.4,1.9,1.4h8.8
				c-4-5.2-7.5-10.1-11.3-14.8c-1.6-2-1.3-3,0.4-4.6c3.4-3.2,6.5-6.7,9.8-10.2c-2.1,0-4.3,0.2-6.4,0c-1.8-0.2-3,0.5-4.3,1.8
				c-2.9,3-6,5.9-9.3,9c0-1.8,0-3.4,0.1-5.3c0-5.7,0-5.6-5.7-5.7c-2,0-2.3,0.8-2.3,2.5V127.1z M316.1,79.3c-1.7-0.2-2.2,0.4-1.8,2.1
				c1.3,5.8,5.2,8.6,13,8.6c2.5,0.1,5.4-0.2,8.1-1.5c3.3-1.6,5.1-4.2,5.1-7.9c0-3.6-1.8-6-5.1-7.3c-1.4-0.5-2.8-1-4.2-1.5
				c-2.4-0.9-5.1-1.4-7.4-2.8c-1.5-0.9-1.9-2.1-0.6-3.5c1.8-1.9,7-1.6,8,0.7c1,2.4,2.5,2.3,4.3,2.1c1.4-0.1,3.3,0.8,3.9-0.5
				c0.7-1.6-0.4-3.3-1.4-4.8c-0.8-1.1-1.8-2-3-2.6c-5.3-2.4-10.5-2.5-15.7,0c-3.1,1.5-4.6,4.1-4.6,7.5c0,3.2,1.6,5.5,4.3,7.1
				c1.9,1.1,3.8,1.8,5.8,2.4c2.1,0.7,4.3,1.2,6.4,2c1.8,0.6,2.2,2.2,1.1,3.5c-2.1,2.5-8.7,1.9-9.7-1.2c-0.8-2.5-2.1-2.5-4-2.4
				C317.8,79.3,316.9,79.4,316.1,79.3z M311.1,170.6c0.1,2,0,4.1,0,6.2c0,2.1,0.1,4.2,0,6.3c-0.1,1.5,0.3,2.1,1.9,2
				c3-0.1,6.1-0.1,9.2,0c1.3,0,2-0.1,2-1.7c0.1-1.6-0.5-2-2-1.9s-3.1-0.1-4.7,0c-1.4,0.1-1.9-0.4-1.9-1.8c0.1-3.1-0.1-6.1,0.1-9.2
				c0.1-1.9-0.7-2.1-2.3-2.1C311.7,168.4,311,168.8,311.1,170.6z M304.9,160.1c1.4,1.3,4.1,0.2,5.9,0.4c1.8,0,3.3,0.1,4.8,0
				c1.1-0.1,2.5,0.6,2.5-1.6c0-2.3-1.5-1.8-2.7-1.8c-1.5-0.1-3.1-0.1-4.7,0c-1.4,0.1-1.8-0.4-1.8-1.8c0-1.5,0.6-1.9,1.9-1.8
				c1.5,0.1,3.1-0.1,4.7,0c1.3,0.1,1.5-0.5,1.5-1.6c0-1,0-1.8-1.4-1.7c-1.7,0.1-3.5-0.1-5.2,0c-1,0.1-1.4-0.3-1.4-1.4
				c0-1,0-1.8,1.4-1.7c1.9,0.1,3.8-0.1,5.7,0c1.2,0.1,1.8-0.2,1.8-1.6c0-1.3-0.4-1.7-1.7-1.7c-3.4,0.1-6.7,0.1-10,0
				c-1.5-0.1-1.7,0.6-1.7,1.9c0,2.7-0.1,5.5,0,8.2C304.5,156,303.6,158.8,304.9,160.1z M304.8,59.4c-1.6,0-2.1,0.5-2.1,2.1v21.7
				c0,6.1,0,6.1,6.3,5.9c1.4,0,1.9-0.4,1.9-1.8c-0.1-4.3,0-8.7,0-13c0-3,0-6-0.1-9C310.8,59.3,310.8,59.4,304.8,59.4z M301.9,18
				c-1.6,0-1.8,0.6-1.8,1.9c0.1,5.5,0,11,0.1,16.5c0.1,6.3,3,10.3,8.2,11.6c3.2,0.8,6.4,0.8,9.6,0.1c5.3-1.2,8.2-4.5,8.5-9.9
				c0.1-3,0-6.1,0-9.2c0.1,0,0.1,0,0.3,0v-5c0-6.1,0-6.1-6.2-6c-1.6,0-2,0.5-2,2c0.1,5.5,0,11.1,0,16.7c0,4-1.5,5.4-5.4,5.4
				c-3.6,0-5.1-1.6-5.1-5.5V23.9C308.1,17.8,308.1,17.8,301.9,18z M290.2,176.2c-0.1,5.4,3.2,9.1,8.5,9.3c5.4,0.2,8.9-3.1,9.1-8.6
				c0.1-5.3-3.2-8.7-8.6-8.9C294.1,167.8,290.4,171.2,290.2,176.2z M285.5,158.3c-0.1,1.6,0.3,2,2,2.2c2.9,0.3,2.5-1.4,2.5-3.2
				c0-3.9,0-3.8,3.7-3.9c1.9-0.1,2.7,0.4,2.4,2.4c-0.1,1,0.1,2,0,3c-0.2,2,1.2,1.6,2.3,1.6s2.3,0.2,2.2-1.7c-0.1-4.3-0.1-8.7,0-13
				c0-1.8-0.7-2-2.2-2s-2.5,0.1-2.4,2.1c0.1,3.7-0.1,3.5-3.1,3.8c-2.6,0.3-3.4-0.6-3-3.1c0.1-0.4,0-0.8,0-1.2c0.2-2-1.4-1.3-2.4-1.4
				c-1.1-0.1-2.2-0.3-2.1,1.5c0.1,2.2,0,4.5,0,6.7C285.4,154.2,285.5,156.3,285.5,158.3z M284.7,110.8c-2.7,5.9-2.5,12.1,1.5,17.5
				c5,6.6,13.9,7.1,21.2,1.3c0.2,0.8,0.3,1.5,0.7,2.2c0.7,2.5,2.6,0.8,3.9,1.2c1.3,0.3,1.2-0.8,1.2-1.6c0-4.3-0.1-8.7,0-13
				c0-1.2-0.4-1.5-1.6-1.5c-3.3,0.1-6.7,0.2-10,0c-2.1-0.1-2.5,0.6-2.6,2.6c-0.1,2.5,0.5,3.6,3.1,3.1c0.7-0.1,1.3-0.1,2,0
				c0.6,0,1.5-0.4,1.7,0.4c0.1,0.5-0.4,1.3-0.7,1.8c-2.7,4.1-9.2,4-12,0c-2.6-3.9-2.6-9.6,0.2-13.4c2.6-3.7,8.5-3.8,11.2-0.2
				c0.7,1,1.4,1.4,2.6,1.3c1-0.1,2,0,3,0c3.1,0,3.2-0.2,1.9-3c-2.9-5.8-8-7.2-13.8-7C292.1,102.7,287.2,105.2,284.7,110.8z
				 M271.7,176.8c0,3.7,2,7.1,5.1,8.1c3.9,1.3,8.1,0.2,10.1-2.7c0.6-0.9,1.5-2,0.9-2.9c-0.6-0.8-2.1-0.2-3.1-0.3
				c-0.7-0.1-0.9,0.5-1.2,1c-0.4,0.9-1.1,1.4-2.1,1.6c-2.2,0.4-3.8-0.2-4.7-2.3c-1.1-2.5-0.4-6.1,1.4-7.3c1.6-1.1,3.8-0.7,5.3,1
				c1.3,1.5,3.1,1.2,4.2,0.5c0.9-0.6-0.3-2.1-1-3c-0.6-0.8-1.4-1.4-2.3-1.8C278.1,166,271.8,170,271.7,176.8z M272.2,22.4
				c0,1.3,0.4,1.8,1.7,1.7c1.7-0.1,3.5,0,5.2-0.1c1.6-0.1,2.1,0.4,2.1,2.1c-0.1,5.2,0,10.5,0,15.7c0,6.2,0,6.2,6.2,6
				c1.6-0.1,1.9-0.7,1.9-2.1V29.5c0-5.5,0-5.5,5.4-5.5c3.6,0,3.6,0,3.6-3.7c0,0,0-0.1,0-0.2c0.3-1.7-0.5-2-2.1-2
				c-3.5,0.1-7.1,0-10.7,0h-9.2C272,18.1,272.1,18.1,272.2,22.4z M272,59.5c0.4,1,0.6,1.7,0.9,2.5c2.6,7.3,5.3,14.7,8,22
				c2,5.6,2,5.6,8,5.2c1-0.1,1.5-0.4,1.8-1.3c3.4-9.4,6.9-18.7,10.4-28.4c-1.2,0-1.9,0-2.6,0.1c-5.9,0-5.9,0-7.5,5.5
				c-1.5,4.9-3,9.8-4.6,15.3c-1.9-6.8-3.7-12.9-5.4-19c-0.3-1-0.3-2-1.8-1.9C276.9,59.6,274.5,59.5,272,59.5z M261.6,143.8
				c-2.2-0.2-3,0.5-2.7,2.7c0.1,1.2,0,2.3,0,3.5c0.1,1.6,0,3.3,0.2,5c0.2,3.7,2.6,5.8,6.9,6s7.2-1.7,7.7-5.4
				c0.5-3.4,0.2-6.9,0.2-10.4c0-2-1.6-1.2-2.6-1.3c-1-0.2-1.9-0.2-1.9,1.4c0.1,3,0,6,0,9c0,1.9-0.8,3.1-2.8,3.1s-3-1-3-3.1
				c0-2.9-0.1-5.7,0-8.5C263.6,144.2,263.1,143.9,261.6,143.8z M256.5,133.1c5.6-0.1,5.6,0,5.6-5.5c0-6.1,0-6.1,6-5.6
				c2.6,0.2,3.7,1.3,3.9,3.9c0.1,1.9,0,3.8,0.5,5.7c0.2,0.8,0.4,1.4,1.4,1.4h6.2c0.8,0,1.3-0.4,0.8-1.2c-1.2-2-0.9-4.2-1-6.3
				c-0.1-2.8-0.6-5.3-3.8-6.6c1.8-1.1,3.1-2,3.9-3.6c2.9-5.7-0.6-11.4-7.5-11.7c-5.5-0.2-11-0.1-16.5-0.2c-1.7-0.1-1.8,0.8-1.8,2.1
				c0.1,8.5,0.1,17,0,25.5C254.2,132.9,254.9,133.1,256.5,133.1z M247.9,178.4c0.1,2.1-0.9,4.9,0.4,6.2c1.4,1.3,4.2,0.2,5.9,0.4
				c2,0,3.7,0,5.3,0.3c1.1,0,2,0.1,2-1.6c0-1.6-0.7-1.9-2.1-1.8c-1.7,0-3.5-0.1-5.2,0c-1.3,0-1.9-0.3-1.9-1.8c0-1.4,0.5-1.9,1.9-1.8
				c1.5,0.1,3-0.1,4.5,0c1.2,0.1,1.8-0.2,1.8-1.6c0-1.5-0.6-1.9-1.9-1.8c-1.5,0.1-3,0-4.5,0c-1,0-1.8,0-1.8-1.4
				c0-1.3,0.6-1.5,1.7-1.5c1.9,0,3.8-0.1,5.7,0c1.3,0,1.4-0.8,1.4-1.8c0.1-1.1-0.1-1.7-1.4-1.7c-3.4,0.1-6.8,0.1-10.2,0
				c-1.3-0.1-1.6,0.5-1.6,1.7C247.9,172.9,247.8,175.7,247.9,178.4z M245.3,86.9c0,1.5,0.2,2.2,2,2.2c5.9,0.1,5.9,0.1,5.9-5.7
				c0-6,0.1-6.1,6.2-5.3c2.3,0.3,3.5,1.5,3.6,3.9c0.1,1.9,0,3.8,0.5,5.7c0.2,0.9,0.4,1.4,1.4,1.4h6.2c0.9,0,1.3-0.4,0.8-1.2
				c-1.2-2.1-0.9-4.4-1-6.6c-0.1-2.7-0.7-5-3.8-6.3c4-2.2,5.4-5.3,4.7-9.4c-0.9-4.3-4.1-5.5-7.9-5.9c-5.5-0.6-11-0.1-16.5-0.3
				c-1.6,0-2.1,0.5-2.1,2.1C245.4,69.9,245.4,78.4,245.3,86.9z M244,46.1c0,1.1,0.4,1.5,1.6,1.6c6.4,0.5,6.4,0.6,6.4-5.7
				c0,0,0-0.1,0-0.2c0-5.7,0-5.7,5.7-5.1c3.1,0.3,4,1.3,4.2,4.4c0.1,1.7-0.1,3.5,0.4,5.2c0.2,0.8,0.4,1.4,1.4,1.4h6.2
				c0.9,0,1.4-0.4,0.9-1.2c-1.2-2-0.9-4.2-1-6.3c-0.2-2.8-0.6-5.3-3.5-6.5c0.2-0.3,0.3-0.4,0.3-0.6c3.7-2.6,4.8-5.3,3.8-9.3
				c-0.8-3.2-3.3-4.9-7.5-5.4c-5.7-0.7-11.5-0.2-17.2-0.4c-1.2,0-1.7,0.3-1.7,1.7V46.1z M242,145.4c0,2.2,1.5,1.7,2.6,1.6
				c2-0.1,2.6,0.5,2.5,2.5c-0.2,3,0,6.1-0.1,9.2c-0.1,1.9,1,1.8,2.2,1.7c1.1,0,2.6,0.5,2.5-1.6c-0.1-2.5,0-5.1,0-7.7
				c0-3.6,0-3.7,3.5-3.9c1.3-0.1,1.5-0.6,1.5-1.7s-0.2-1.8-1.5-1.7c-1.9,0.1-3.8,0-5.7,0s-3.8,0.1-5.8-0.1
				C242.4,143.6,242,144.1,242,145.4z M229.3,183c0,1.4,0.4,1.8,1.9,2c3.2,0.5,2.7-1.5,2.7-3.4c0-3,0.3-3.2,3.3-2.8
				c2.3,0.3,2.2,1.9,2.2,3.5c-0.1,2.1,0.7,3.1,2.9,2.7c0.7-0.1,1.3-0.1,2.2-0.1c-1.4-2.5,0.4-5.8-2.7-7.7c2.1-1.5,3.1-3.3,2.2-5.6
				c-0.8-2.5-3.1-3-5.4-3c-2.5-0.1-5,0-7.5-0.1c-1.5-0.1-1.8,0.4-1.8,1.8C229.4,174.5,229.4,178.8,229.3,183z M228.1,99.8
				c0.6,0.4,1.6,0.5,2.1-0.2c1.2-1.6,2.7-1.1,4.1-0.9c0.8,0.1,1.6,0.3,2.4,0.5c2.5,0.2,4-1.1,4.7-3.3c0.2-0.4,0.9-1,0.2-1.5
				c-0.6-0.4-1.6-0.5-1.9,0c-1.6,2.2-3.5,1.3-5.4,0.8c-2.9-0.8-5,0.2-6.1,2.8C228,98.6,227.4,99.3,228.1,99.8z M224.9,158.2
				c0,1.8,0.7,1.9,2.2,2.1c3.2,0.4,2.8-1.5,2.8-3.5c-0.1-2.9,0.6-3.3,3.5-2.6c1.8,0.4,1.9,1.8,1.8,3.1c-0.1,2.6,1.1,3.5,3.6,3.1
				c0.4-0.1,0.8,0,1.6,0c-0.2-0.5-0.3-0.8-0.5-1.2c-1-2.1,0.6-5-2.1-6.6c-0.3-0.1,0.3-0.6,0.6-0.9c1.6-1.4,2-3.1,1.3-5
				c-0.8-2-2.5-2.8-4.6-2.8c-2.8,0-5.7,0-8.5-0.1c-1.4-0.1-1.7,0.4-1.7,1.7C225,149.7,225,154,224.9,158.2z M219.4,118.2
				c-0.1,9.7,5.7,15.4,15.5,15.6c9.8,0.1,16.1-5.9,16.1-15.4c0.1-9.6-6.2-15.8-16-15.7C225.2,102.8,219.4,108.5,219.4,118.2z
				 M217.3,87.2c-0.1,1.7,0.6,1.9,2,1.9c3.3-0.1,6.7,0,10,0c2.8,0,5.5,0,8.3,0.1c4.2,0,4.1,0,4.1-4.1c0-1.6-0.5-2-2-2
				c-3.3,0.1-6.7,0-10,0c-4.4,0-4.3,0-4.3-4.4c0-1.6,0.5-1.9,2-1.9c3.5,0.1,7,0,10.5,0.1c1.6,0.1,2.2-0.5,2-2c-0.1-0.7-0.1-1.3,0-2
				c0.2-1.8-0.6-2.1-2.2-2.1c-3.3,0.1-6.7-0.1-10,0.1c-2.3,0.1-2.4-1-2.3-2.7c0.1-1.6-0.3-3,2.2-2.8c3.2,0.3,6.5,0.1,9.7,0.1
				c3.9,0,3.9,0,3.9-4c0-1.6-0.4-2.1-2.1-2.1c-6.7,0.1-13.3,0.1-20,0c-1.3,0-1.8,0.4-1.8,1.8C217.4,69.9,217.4,78.5,217.3,87.2z
				 M212.7,47.7c1.8,0,3.7-0.1,5.5,0c1,0.1,1.4-0.4,1.8-1.3c1.6-4,1.7-4,6-4c1.3,0,2.7,0.1,4,0c1.4-0.1,2.3,0.2,2.5,1.7
				c0.4,3.2,2.1,4.5,4.8,3.7c1,0,1.5,0,2-0.2c3.1,0,3.1,0,2-2.9c-2.6-6.8-5.2-13.7-7.8-20.5c-0.8-2.1-0.9-5-2.6-6
				c-1.7-0.9-4.4-0.3-6.6-0.3h-0.7c-0.9-0.1-1.3,0.4-1.6,1.2c-3.4,9-6.9,18-10.3,27C211.3,47.1,211.4,47.7,212.7,47.7z M215.7,169.3
				c-2,5.1-3.8,10.3-5.8,15.6c2.2-0.2,4.8,1.2,5.4-2.3c0.2-1,5.9-1.1,6.1-0.2c0.8,3.5,3.3,2.5,5.8,2.5c-2-5.3-3.9-10.2-5.7-15.3
				c-0.4-1.1-1.1-1.4-2.1-1.2C218.2,168.6,216.4,167.5,215.7,169.3z M205.4,160.4c2.3-0.1,4.8,1.1,5.5-2.4c0.2-0.9,5.9-1,6.1,0
				c0.7,3.5,3.2,2.4,5.7,2.4c-2-5.4-3.9-10.5-5.8-15.6c-0.7-1.6-2.2-0.8-3.3-0.9c-0.9-0.1-2-0.3-2.5,1
				C209.3,150,207.4,155.1,205.4,160.4z M193.1,180.1c1.1,3.2,3.4,5,6.8,5.3c3,0.2,5.8-0.3,7.7-3c0.7-0.9,1.5-1.9,1-2.9
				c-0.6-1.1-2-0.3-3-0.5c-1-0.1-1.1,0.7-1.4,1.2c-0.9,1.3-2.2,1.7-3.7,1.5c-2.2-0.2-3-1.8-3.4-3.7c-0.5-2.7,0.5-5.5,2.2-6.2
				c1.9-0.8,3.7-0.5,5.1,1.3c1.1,1.4,3,1.1,4,0.4c0.9-0.6-0.2-1.9-0.8-2.8c-1.6-2.1-3.8-2.6-6.2-2.7
				C195,167.8,190.7,173.9,193.1,180.1z M195,133.1c1.6-0.4,4.4,1.8,4.9-1.6c0.3-2.1,0.1-4.3,0-6.5c-0.1-1.8,1.2-2.7,2.3-3.3
				c1.1-0.6,1.5,1,2,1.7c2.2,2.8,4.2,5.6,6.3,8.4c0.5,0.8,1.1,1.2,2.2,1.2c2.6-0.1,5.2,0,8.3,0c-3.6-4.8-6.9-9.2-10.4-13.5
				c-2.7-3.7-2.7-3.6,0.5-6.9c2.9-3,5.8-6.1,8.7-9.2c-1.9,0-3.9,0.2-5.9,0c-2.1-0.2-3.5,0.5-5,2c-2.8,3-5.9,5.7-9,8.7
				c0-3-0.1-6.1,0-9.1c0-1.2-0.5-1.8-1.6-1.5c-2,0.5-4.5-1.3-6.3,0.9c-0.1,0.1,0,0.5,0,0.7c0,8.9,0.1,17.7,0,26.5
				C192,134.3,194.1,133.3,195,133.1z M191.7,145.7c0,1.6,1,1.6,2,1.4c2.7-0.5,3.2,0.8,3,3.2c-0.2,2.7,0,5.3-0.1,8
				c-0.1,1.7,0.4,2.3,2.2,2.2c1.5-0.1,2.8,0.1,2.6-2.1c-0.2-2.5,0-5,0-7.5c0-3.5,0-3.5,3.4-3.7c1.2,0,1.6-0.4,1.6-1.6
				c0-1.3-0.4-1.9-1.7-1.8c-1.8,0.1-3.7,0-5.5,0c-2,0-3.9,0.1-5.7,0C192,143.7,191.7,144.4,191.7,145.7z M189.4,65
				c0.3,1.1,1.9,0.4,2.9,0.5c1.3,0.1,2.7,0.1,4,0c1.6-0.1,1.9,0.5,1.9,2v15.7c0,6.1,0,6,6.2,6c1.8,0,2-0.7,2-2.2V72
				c0-2-0.6-4.8,0.4-6c1.2-1.4,4.1-0.5,6.2-0.4c2,0.1,2.7-0.6,2.4-2.5c-0.1-0.5-0.1-1,0-1.5c0.2-1.6-0.4-2.2-2.1-2.1
				c-3.7,0.1-7.3,0-11,0c-3.8,0-7.5,0-11.3,0.1c-0.6,0-1.6-0.3-1.7,0.5C189.1,61.7,189,63.5,189.4,65z M189.1,21.4
				c-0.1,2.2,0.4,3.2,2.8,2.9c1.4-0.2,2.8,0,4.2-0.1c1.7-0.2,2,0.6,2,2.1V42c0,6,0,6,6,5.9c1.6,0,2.1-0.5,2.1-2.1
				c-0.1-5.6,0-11.1,0-16.7c0-4.9,0-4.9,5-4.9c4.2,0,4.1,0,4.1-4.1c0-1.6-0.5-2-2-2c-3.7,0.1-7.5,0-11.2,0c-3.2,0-6.5-0.1-9.7,0.2
				C188.8,18.3,189.3,17.7,189.1,21.4z M123.6,135.2c-0.1,0.4,0.4,0.4,0.7,0.4c0.9-0.1,1.9,0,2.8-0.3c0.1,0,0.3,0,0.4,0
				c16.1-2.9,27.9-11.8,35.4-26.1c7.1-13.6,5.5-26.7-3.4-39c-3.7-5.2-8.4-9.2-13.8-12.5c-10-6.2-21.1-8.8-32.8-8.8
				c-6.3,0-12.5,0.6-18.4,3C73.1,60.7,59.9,87,63.3,110.3c2.7,18.4,13.1,31.9,28.1,42.1c6.2,4.3,13.2,6.8,20.6,7.8
				c19.1,2.6,36.1-2.4,51.2-14.2c6.3-5,6.3-5,6.3-13v-10.6c-2.6,3.4-5,6.1-7.6,8.5c-11.9,10.8-25.4,17.5-41.9,16.7
				c-5.9-0.3-11.5-1.9-15.8-6c-11-10.6-19.4-22.8-22.9-37.9C79.4,95.4,79,87,82.4,78.9c4.5-10.7,15.5-13.3,24.2-5.7
				c1.8,1.6,3.4,3.4,5.2,5.1c1.5-2.6,3.3-5,5.5-7.1c2.7-2.7,6-4.5,9.9-4.7c7.9-0.4,12.8,4.2,16.2,10.5c10.3,18.7,4.5,46-18.8,57.6
				C124.2,134.8,123.7,134.9,123.6,135.2z M471,209H2.3c-1.9,0-2.3-0.4-2.3-2.3C0.1,138.6,0.1,70.4,0,2.3C0,0.4,0.4,0,2.3,0
				c155.5,0.1,310.9,0.1,466.4,0c1.9,0,2.3,0.4,2.3,2.3C470.9,71.2,471,140.1,471,209z M169.6,20.7c0.1-2.3-0.6-2.7-2.7-2.7
				c-46.2,0.1-92.5,0.1-138.7,0c-2.2,0-2.8,0.4-2.8,2.7c0.1,54,0.1,107.9,0,161.9c0,2.3,0.7,2.8,2.9,2.8H168c1,0.1,1.4-0.4,1.4-1.5
				v-27.4c-1.2,0.8-1.8,1.3-2.5,1.7c-16.5,11.4-34.6,16.4-54.6,14.2c-19.7-2.2-34.9-12.2-47.1-27.3c-20.3-25.2-20.1-60.6,0.3-86.3
				c8-10.1,17.8-17.4,30.4-20.7c9.5-2.5,19.3-2.6,29-1.1c17.5,2.7,32.4,10.2,43.7,24.2c0.2,0.2,0.3,0.6,0.9,0.3v-2.1
				C169.5,46.5,169.5,33.6,169.6,20.7z M124.7,119.4c10.9-8.6,14.3-24.2,8.1-36.5c-2.8-5.4-5.9-5.6-9.2-0.4
				c-2.3,3.6-3.9,7.5-5.1,11.6c-1.6,5.2-3.2,10.4-5,16.4c-0.9-2-1.4-3.4-2.1-4.8c-3-6.4-5.1-13.2-9.1-19.1c-1.1-1.6-2.3-3.1-3.8-4.3
				c-2-1.5-2.9-1.3-4.2,0.8c-1.3,2.2-1.7,4.7-1.8,7.2c-0.6,14.2,5.9,25.6,14.5,36.1c0.7,0.8,1.5,0.6,2.3,0.4
				C114.9,125.4,120.1,123,124.7,119.4z"/>
			<path class="st2" d="M189.3,60.1c0.1-0.8,1.1-0.5,1.7-0.5c3.8-0.1,7.5-0.1,11.3-0.1c3.7,0,7.3,0.1,11,0c1.7-0.1,2.3,0.5,2.1,2.1
				c-0.1,0.5-0.1,1,0,1.5c0.3,1.9-0.4,2.6-2.4,2.5c-2.1-0.1-5-1-6.2,0.4c-1,1.2-0.4,4-0.4,6v15c0,1.5-0.2,2.2-2,2.2
				c-6.2,0-6.2,0.1-6.2-6V67.5c0-1.5-0.3-2.1-1.9-2c-1.3,0.1-2.7,0.1-4,0c-1-0.1-2.6,0.6-2.9-0.5C189,63.5,189.1,61.7,189.3,60.1z"
				/>
			<path class="st6" d="M124.6,134.6c0.9,0.8,2,0.1,3,0.5c-0.2,0.1-0.3,0.1-0.5,0.2C126.2,135.3,125.3,135.6,124.6,134.6z"/>
			<path class="st6" d="M124.3,135.6c-0.3,0-0.8,0-0.7-0.4c0.1-0.3,0.6-0.4,1-0.6c0.7,1,1.6,0.7,2.5,0.7
				C126.2,135.6,125.2,135.5,124.3,135.6z"/>
		</g>
		<g>
		</g>
	</g>
</g>
</svg>
