<?xml version="1.0" encoding="utf-8"?>
<!-- Generator: Adobe Illustrator 25.0.1, SVG Export Plug-In . SVG Version: 6.00 Build 0)  -->
<svg version="1.1" id="Layer_1" xmlns="http://www.w3.org/2000/svg" xmlns:xlink="http://www.w3.org/1999/xlink" x="0px" y="0px"
	 viewBox="0 0 189 276.5" style="enable-background:new 0 0 189 276.5;" xml:space="preserve">
<style type="text/css">
	.st0{fill:#FEFEFE;}
	.st1{fill:#F8DEDE;}
	.st2{fill:#FBD3D3;}
	.st3{fill:#FE3636;}
	.st4{fill:#FD8A8A;}
</style>
<g>
	<path class="st0" d="M49.4,60c-1-3.9-0.4-8.1-0.3-12.2c0.1-10.8,4.2-19.9,11.5-27.7c1.5-1.6,3.1-3,4.6-4.6c4.3-4.5,9.7-7,15.5-9
		c7.8-2.7,15.8-1.7,23.7-1.2c4.8,0.3,9.6,2.3,13.9,5.1c6.2,4.1,11.6,8.9,15.7,15.1c4.9,7.5,8.4,15.6,7,25.2c1.7,9.2-2.6,17-6.6,24.9
		c-1.3,2.6-4,4.2-5.8,6.5c-5.4,6.4-12.4,10.6-20.2,13.3c-0.5,0.2-1.1,0.5-1.7,0.5c-5.2-0.1-10.3,1.8-15.6,1C81.7,95.6,73,93,66,86.4
		c-1.4-1.4-2.7-2.9-4.3-4.2C54.9,76.3,51.5,68.4,49.4,60z"/>
	<path class="st0" d="M182,192.3c0.1,2.8-1.8,4-3.9,5.2c-3.5,2-6.9,4.1-10.8,5.4c-1.6,0.5-2.4,2.2-2.2,4.1
		c0.5,8.5-1.2,16.7-4.4,24.5c-1.5,3.7-3.5,7.2-5.4,10.8c-4.4,8-11.6,13.4-17.9,19.6c-3.7,3.6-8.3,6.2-13.3,8
		c-1.9,0.7-3.8,1.7-5.6,2.5c-3.4,1.5-7.2,1.9-10.8,2.6c-1.2,0.2-2.4,0.4-3.6,1c0,0.2,0,0.4,0,0.6c-0.2-0.2-0.2-0.4-0.2-0.6
		c0,0,0-0.1,0-0.1c0,0,0,0,0-0.1c0.8-1.2,2.1-1.2,3.3-1.4c10.5-1.6,19.9-5.8,28.5-12c2.3-1.6,4.1-3.9,6.1-5.9
		c1.9-1.9,3.7-3.8,5.7-5.6c6.4-6,10.2-13.6,13.3-21.7c2.6-6.9,3.8-14.1,3.6-21.5c-0.1-3.6,0.9-5.1,4.3-6.1c3.9-1.1,6.8-3.8,10.3-5.5
		c1.5-0.8,2.3-2.4,2.3-4.2c0-12.7,0.4-25.3-0.1-38c-0.4-8.7-2.5-17.1-7.2-24.7c-0.2-0.3-0.3-0.6-0.5-0.8
		c-4.7-4.8-8.8-10.3-14.8-13.7c-7.8-4.4-16.2-7.4-25-9c-4.2-0.7-8.4-2.2-12.8-2.1c-1.8,0-3.5,0.2-5.1,1.1c-4.3,2.6-9.1,3.3-13.9,3.7
		c-8.8,0.7-17.6,0.2-25.9-3.8c-1.7-0.8-3.5-1.2-5.3-1c-7.8,1.1-15.5,2.2-23,4.7c-7.2,2.4-14.4,5.3-20.4,10.2
		c-6.9,5.6-12.2,12.4-15.2,20.9c-2.3,6.2-3.3,12.7-3.4,19.3c0,10.2,0,20.5,0,30.7c0,2.6,0.8,4.3,3,5.8c3.3,2.1,6.7,3.8,10.2,5.3
		c2.5,1.1,3.8,2.8,3.8,5.5c0,4.4,0,8.8,0.9,13.2c1.7,8.1,4.8,15.5,8.9,22.6c4.8,8.2,12.3,14,18.9,20.4c3.4,3.3,7.9,5.4,12.4,7.3
		c5.3,2.3,10.8,3.9,16.5,4.8c1,0.2,2.2,0.2,2.8,1.3c0,0,0,0,0,0.1c0,0,0,0.1,0,0.1c0,0.2-0.1,0.4-0.2,0.6c0-0.2,0-0.4,0-0.6
		c-2.2-1.2-4.8-1.2-7.2-1.7c-7.8-1.5-14.6-5-21.4-8.8c-5.5-3.1-9.1-8.2-13.7-12.2c-6.9-6-10.9-13.7-14.3-22
		c-3.3-8-4.8-16.1-4.4-24.7c0.1-2.6-0.9-4-3.3-5.2c-3.8-1.8-7.6-3.5-11.1-5.9C9,194.3,8,193,8,190.8c0.1-10.5,0.1-21,0-31.5
		c0-9.7,2.2-18.7,6.9-27.3c5.2-9.6,13.3-15.9,22.9-20.4c8.9-4.1,18.2-6.7,28-7.6c1-0.1,1.9-0.5,2.9-0.7c2.6-0.5,5-0.4,7.5,0.8
		c5.3,2.6,10.9,3.7,16.8,3.9c6.9,0.3,13.9,0.1,20.2-2.8c3.8-1.8,7.5-2.7,11.5-2.1c4.6,0.8,9.1,1.8,13.6,2.9c7.8,1.8,15.4,4.4,22,9
		c7.3,5.1,13.6,11.3,17.2,19.8c1.9,4.5,3,9,3.6,13.8C183,163.2,181.5,177.8,182,192.3z"/>
	<path class="st1" d="M-54.7,176.8c-0.1,0.1-0.1,0.1-0.2,0.2c-0.2,0-0.4,0-0.5,0v-31.5c0.2,0,0.3,0,0.5,0c0,0,0.1,0.1,0.1,0.1
		c0.8,0.9,0.7,2.1,0.7,3.2c0,8.3,0,16.6,0,24.9C-54.1,174.7-54,175.8-54.7,176.8z"/>
	<path class="st2" d="M104,276.5h-18c0-0.2,0-0.4,0-0.6c0.1,0,0.1-0.1,0.2-0.1c0.6-0.5,1.4-0.6,2.1-0.6c4.4-0.1,8.9-0.1,13.3,0
		c0.8,0,1.5,0.1,2.1,0.6c0,0,0.1,0.1,0.2,0.1C104,276.1,104,276.3,104,276.5z"/>
	<path class="st3" d="M131,195.4c0,4.2,0.6,8.6-1.6,12.5c-2.2,4-4.2,8.3-7.5,11.6c-4.8,4.9-9.6,9.7-14.5,14.5
		c-3.3,3.2-7.2,5.6-11,8.1c-1,0.6-1.8,0.6-2.8,0c-4-2.2-7.7-4.9-11-8.1c-5-4.8-10-9.6-14.6-14.7c-3.8-4.2-6.8-9.1-8.6-14.6
		c-0.8-2.4-0.2-4.8-0.5-6.9c0.1-3.6-0.8-7.2,1.9-9.8c3.3-3.3,5.8-7.9,11-8.6c6.4-0.8,12.9-1.5,17.5,4.6c1.6,2.1,4,3.3,4.8,6.2
		c0.4,1.7,1.6,0.1,1.8-0.4c1.4-3.1,4-5,6.2-7.4c1.4-1.5,3-2.6,5.1-2.9c4.2-0.8,8.4-1,12.5,0.3C125.4,181.5,131,189.5,131,195.4z"/>
	<path class="st3" d="M181.1,148.7c-0.6-4.8-1.7-9.4-3.6-13.8c-3.5-8.5-9.8-14.7-17.2-19.8c-6.6-4.6-14.2-7.2-22-9
		c-4.5-1.1-9-2.1-13.6-2.9c-4-0.7-7.7,0.3-11.5,2.1c-6.3,2.9-13.3,3-20.2,2.8c-5.8-0.2-11.5-1.3-16.8-3.9c-2.5-1.2-4.9-1.3-7.5-0.8
		c-1,0.2-1.9,0.6-2.9,0.7c-9.8,0.9-19.2,3.5-28,7.6c-9.6,4.5-17.7,10.8-22.9,20.4c-4.6,8.6-6.9,17.6-6.9,27.3c0,10.5,0.1,21,0,31.5
		c0,2.2,0.9,3.6,2.6,4.7c3.5,2.3,7.3,4.1,11.1,5.9c2.4,1.1,3.4,2.6,3.3,5.2c-0.4,8.5,1.1,16.7,4.4,24.7c3.5,8.2,7.5,16,14.3,22
		c4.6,4,8.2,9.1,13.7,12.2c6.8,3.8,13.6,7.4,21.4,8.8c2.4,0.5,5,0.5,7.2,1.7H104c1.1-0.6,2.3-0.7,3.6-1c3.6-0.7,7.4-1.1,10.8-2.6
		c1.9-0.8,3.7-1.8,5.6-2.5c5-1.7,9.6-4.4,13.3-8c6.3-6.2,13.5-11.6,17.9-19.6c1.9-3.5,3.9-7.1,5.4-10.8c3.2-7.8,4.9-16,4.4-24.5
		c-0.1-1.9,0.6-3.6,2.2-4.1c3.9-1.2,7.3-3.4,10.8-5.4c2.1-1.2,4-2.4,3.9-5.2C181.5,177.8,183,163.2,181.1,148.7z M136.2,247.5
		c-4.8,5.3-10.6,9-17,12.1c-7.8,3.7-15.7,5-23.3,4.4c-7.4,0.2-13.8,0.1-20.2-2.3c-14.3-5.4-25.1-14.9-32.6-27.9
		c-4.6-7.9-7.2-16.8-7.2-26.3c0-7.6,0.8-14.9,3.6-21.9c1.7-4.4,3.9-8.5,6.4-12.5c4.3-6.9,10.1-12.3,16.7-16.8
		c6.9-4.7,14.7-7.9,22.9-9c6.6-0.9,13.5-0.8,20.4,0.3c5.4,0.9,10.4,2.9,15.3,5c3.7,1.6,7.3,3.8,10.5,6.5c3.8,3.3,7.5,6.6,10.5,10.6
		c3.3,4.5,5.7,9.6,8,14.7c4.1,9.1,4.9,18.7,3.7,28.3c-1.4,11.7-5.9,22.3-14.1,31.1C138.6,245.1,137.3,246.2,136.2,247.5z"/>
	<path class="st3" d="M134.2,75.6c-1.3,2.6-4,4.2-5.8,6.5c-5.4,6.4-12.4,10.6-20.2,13.3c-0.5,0.2-1.1,0.5-1.7,0.5
		c-5.2-0.1-10.3,1.8-15.6,1C81.7,95.6,73,93,66,86.4c-1.4-1.4-2.7-2.9-4.3-4.2C54.9,76.3,51.5,68.4,49.4,60c-1-3.9-0.4-8.1-0.3-12.2
		c0.1-10.8,4.2-19.9,11.5-27.7c1.5-1.6,3.1-3,4.6-4.6c4.3-4.5,9.7-7,15.5-9c7.8-2.7,15.8-1.7,23.7-1.2c4.8,0.3,9.6,2.3,13.9,5.1
		c6.2,4.1,11.6,8.9,15.7,15.1c4.9,7.5,8.4,15.6,7,25.2C142.5,59.9,138.2,67.7,134.2,75.6z"/>
	<path class="st4" d="M189,140.5"/>
	<path class="st0" d="M129.5,207.8c-2.2,4-4.2,8.3-7.5,11.6c-4.8,4.9-9.6,9.7-14.5,14.5c-3.3,3.2-7.2,5.6-11,8.1
		c-1,0.6-1.8,0.6-2.8,0c-4-2.2-7.7-4.9-11-8.1c-5-4.8-10-9.6-14.6-14.7c-3.8-4.2-6.8-9.1-8.6-14.6c-0.8-2.4-0.2-4.8-0.5-6.9
		c0.1-3.6-0.8-7.2,1.9-9.8c3.3-3.3,5.8-7.9,11-8.6c6.4-0.8,12.9-1.5,17.5,4.6c1.6,2.1,4,3.3,4.8,6.2c0.4,1.7,1.6,0.1,1.8-0.4
		c1.4-3.1,4-5,6.2-7.4c1.4-1.5,3-2.6,5.1-2.9c4.2-0.8,8.4-1,12.5,0.3c5.6,1.8,11.2,9.7,11.2,15.6C131,199.6,131.6,203.9,129.5,207.8
		z"/>
	<path class="st3" d="M129.5,207.8c-2.2,4-4.2,8.3-7.5,11.6c-4.8,4.9-9.6,9.7-14.5,14.5c-3.3,3.2-7.2,5.6-11,8.1
		c-1,0.6-1.8,0.6-2.8,0c-4-2.2-7.7-4.9-11-8.1c-5-4.8-10-9.6-14.6-14.7c-3.8-4.2-6.8-9.1-8.6-14.6c-0.8-2.4-0.2-4.8-0.5-6.9
		c0.1-3.6-0.8-7.2,1.9-9.8c3.3-3.3,5.8-7.9,11-8.6c6.4-0.8,12.9-1.5,17.5,4.6c1.6,2.1,4,3.3,4.8,6.2c0.4,1.7,1.6,0.1,1.8-0.4
		c1.4-3.1,4-5,6.2-7.4c1.4-1.5,3-2.6,5.1-2.9c4.2-0.8,8.4-1,12.5,0.3c5.6,1.8,11.2,9.7,11.2,15.6C131,199.6,131.6,203.9,129.5,207.8
		z"/>
</g>
</svg>
